<?xml version="1.0" encoding="UTF-8" standalone="no"?><!DOCTYPE svg PUBLIC "-//W3C//DTD SVG 1.1//EN" "http://www.w3.org/Graphics/SVG/1.1/DTD/svg11.dtd"><svg width="100%" height="100%" viewBox="0 0 100 100" version="1.1" xmlns="http://www.w3.org/2000/svg" xmlns:xlink="http://www.w3.org/1999/xlink" xml:space="preserve" xmlns:serif="http://www.serif.com/" style="fill-rule:evenodd;clip-rule:evenodd;stroke-linejoin:round;stroke-miterlimit:2;"><g><path d="M50,0c27.596,0 50,22.404 50,50c0,27.596 -22.404,50 -50,50c-27.596,0 -50,-22.404 -50,-50c0,-27.596 22.404,-50 50,-50Zm-23.152,44.713l0.269,5.289c0.016,0.441 0.206,4.446 1.8,8.627c1.271,3.331 3.421,6.691 6.741,8.875c2.966,1.951 6.928,3.127 12.26,2.185c2.274,8.171 5.006,14.968 6.021,17.025c0.604,1.225 1.671,2.161 2.965,2.6c1.294,0.439 2.71,0.346 3.935,-0.258c1.225,-0.604 2.161,-1.671 2.6,-2.965c0.439,-1.294 0.346,-2.71 -0.258,-3.935c-0.941,-1.907 -3.495,-8.361 -5.561,-16.022c14.256,-8.11 15.511,-24.587 14.661,-30.345c-0.934,-6.327 -7.496,-11.864 -14.517,-10.445c-3.895,0.787 -8.425,3.769 -11.491,11.367c-2.394,5.933 -2.218,14.445 -0.691,22.916c-1.785,0.232 -3.18,-0.021 -4.26,-0.732c-1.436,-0.944 -2.227,-2.498 -2.777,-3.939c-1.037,-2.719 -1.13,-5.312 -1.13,-5.312l-0.001,-0.036l-1.079,-14.797c7.042,-6.163 16.292,-11.901 27.717,-14.194c1.34,-0.269 2.518,-1.059 3.275,-2.196c0.757,-1.137 1.032,-2.53 0.763,-3.869c-0.269,-1.34 -1.059,-2.518 -2.196,-3.276c-1.137,-0.757 -2.529,-1.032 -3.869,-0.763c-10.426,2.092 -19.297,6.65 -26.589,11.969l-0.26,-3.57c-0.083,-1.132 -0.8,-2.119 -1.85,-2.548c-1.051,-0.429 -2.254,-0.224 -3.105,0.527c-2.897,2.559 -4.47,6.298 -4.273,10.158l0.17,3.344c-10.368,10.139 -15.623,20.119 -15.623,20.119c-0.634,1.21 -0.762,2.623 -0.355,3.927c0.407,1.304 1.317,2.394 2.527,3.028c1.21,0.634 2.623,0.762 3.928,0.355c1.304,-0.407 2.393,-1.316 3.028,-2.527c0,0 2.42,-4.644 7.225,-10.584Zm28.441,10.486c-0.827,-5.478 -1.014,-10.779 0.541,-14.633c0.756,-1.873 1.585,-3.261 2.519,-4.198c0.546,-0.547 1.069,-0.907 1.623,-0.947c1.081,-0.079 1.97,0.885 2.115,1.872c0.495,3.355 -0.13,12.218 -6.798,17.906Zm17.808,6.374c-4.829,0 -8.75,3.921 -8.75,8.75c0,4.829 3.921,8.75 8.75,8.75c4.829,0 8.75,-3.921 8.75,-8.75c0,-4.829 -3.921,-8.75 -8.75,-8.75Z" style="fill:#8da795;"/></g></svg>