<svg xmlns="http://www.w3.org/2000/svg" id="Calque_1" viewBox="0 0 5336.37 2425.62"><defs><style>.st1{fill:#b17742;fill-rule:evenodd}</style></defs><path d="M-1.1-.25h5344.36V2430.1H-1.1z" style="fill:#dba56b"/><path d="m1061.74 1876.63-4.65-1.12a25 25 0 0 0 1.21 14.3l12.87 1.26a57 57 0 0 0-8.09-14.36M954.37 1518.14l-1.9-4.38a24.7 24.7 0 0 0-10.68 9.58l6.74 11.03a57 57 0 0 0 6.6-15.1M834.67 1157.75l-4.65-1.12a25 25 0 0 0 1.21 14.3l12.87 1.26a57 57 0 0 0-8.09-14.36M1963.98 1600.37l-4.65-1.12a25 25 0 0 0 1.21 14.3l12.87 1.26a57 57 0 0 0-8.09-14.36M1678.46 1131.9l-1.9-4.38a24.7 24.7 0 0 0-10.68 9.58l6.74 11.03a57 57 0 0 0 6.6-15.1M2314.22 725.38l-4.74.64a24.8 24.8 0 0 0 6.32 12.88l12.45-3.5a56 56 0 0 0-12.75-10.44M3004.06 549.52l-4.15 2.37a25 25 0 0 0 10.68 9.58l10.23-7.9a57 57 0 0 0-15.73-4.92M3597.46 1096.31l4.62-1.21a24.7 24.7 0 0 0-7.85-12.01l-11.93 4.99a57 57 0 0 0 13.93 8.81M4204.84 1570.87l-1.9-4.38a24.7 24.7 0 0 0-10.68 9.58l6.74 11.03a57 57 0 0 0 6.6-15.1M4788.71 1258.43l-4.78-.13c0 4.85 1.47 9.7 4.18 13.73l12.85-1.46a57 57 0 0 0-10.91-12.35M4905.98 412.25l2.94-3.77a24.7 24.7 0 0 0-13.52-4.8l-6.46 11.2c5.5.32 11.06-.16 16.42-1.43M4094.79 402.73l3.04-3.69a24.8 24.8 0 0 0-13.38-5.17l-6.76 11.02c5.49.47 11.06.14 16.45-.99M2793.61 1106.6l1.71-4.46a24.7 24.7 0 0 0-14.33-.63l-2.9 12.6a57 57 0 0 0 15.28-6.18M393.87 2136.88l-3.12-.05 3.01 8.36c.3.84.64 1.73 1.33 2.3s1.87.65 2.41-.07l-2.23-9.37-1.8-.51M2532.84 2025.85l-3.12-.05 3.01 8.36c.3.84.64 1.73 1.33 2.3s1.87.65 2.41-.07l-2.23-9.37-1.8-.51M2966.06 1773.72l1.56 2.71 5.63-6.88c.57-.69 1.16-1.44 1.29-2.32s-.4-1.94-1.29-2.03l-6.89 6.73.49 1.81M3850.05 2067.09l.03-3.12-8.34 3.06c-.84.31-1.73.65-2.29 1.35s-.64 1.87.08 2.4l9.35-2.3.5-1.8M4650.72 1836.93l.42 3.09 7.81-4.24a5 5 0 0 0 2.07-1.66c.46-.77.36-1.95-.43-2.37l-8.92 3.63-.23 1.86M5015.53 1399.54l-1.97 2.42 8.43 2.81c.85.28 1.75.57 2.63.38s1.67-1.07 1.43-1.93l-8.75-4.04-1.52 1.1M5017.7 697.27l-1.88-2.49-4.72 7.53c-.48.76-.97 1.57-.99 2.47s.64 1.87 1.54 1.85l5.99-7.54-.71-1.73M4641.95 358.83l-1.67-2.63-5.32 7.12c-.54.72-1.09 1.49-1.19 2.38s.49 1.92 1.38 1.97l6.59-7.03-.57-1.78M4337.77 705.33l-2.83 1.31 6.36 6.21c.64.63 1.33 1.28 2.2 1.49s1.97-.23 2.14-1.11l-6.1-7.46-1.84.32M3573.1 554.5l-3.12-.05 3.01 8.36c.3.84.64 1.73 1.33 2.3s1.87.65 2.41-.07l-2.23-9.37-1.8-.51M2907.08 336.9l-2.88 1.21 6.13 6.43c.62.65 1.28 1.33 2.15 1.57s1.97-.16 2.17-1.03l-5.83-7.67-1.85.26M2009.5 436.36l-1.07-2.93-6.72 5.81c-.68.59-1.39 1.22-1.67 2.07s.06 1.98.93 2.22l7.94-5.46-.17-1.86M930.38 618.73l-.25-3.11-8.03 3.8c-.81.38-1.66.8-2.16 1.55s-.47 1.92.3 2.39l9.11-3.12.34-1.84M517.98 960.47l-2.07-2.34-4.13 7.86c-.42.79-.85 1.64-.8 2.53s.78 1.82 1.67 1.73l5.4-7.98-.84-1.67M324.08 1681.53l-1.25-2.86-6.34 6.22c-.64.63-1.31 1.3-1.53 2.17s.19 1.97 1.06 2.16l7.58-5.94-.29-1.85M1421.99 769.24l-.02-.83a4.7 4.7 0 0 0-3.93.15c-.78.48-.99 1.58-.72 2.46s.9 1.59 1.51 2.27c.5.56 1.03 1.14 1.74 1.38s1.64.02 1.92-.68c.21-.51.02-1.09-.02-1.64s.26-1.24.81-1.23l-1.04-1.35M2491 1457.27l-.64-.92a6.5 6.5 0 0 0-4.34 3.09c-.53 1.13.05 2.52 1.01 3.32s2.2 1.14 3.41 1.45c.98.26 2.02.52 3 .27s1.87-1.2 1.68-2.2c-.14-.74-.79-1.25-1.24-1.85s-.63-1.6 0-2l-2.18-.76M3405.42 1475.71l.36-.75a4.7 4.7 0 0 0-3.57-1.65c-.92.08-1.6.96-1.76 1.86s.08 1.83.31 2.71c.19.72.41 1.48.93 2.02s1.45.76 2.02.27c.42-.36.51-.96.73-1.47s.79-.99 1.28-.73l-.31-1.67M3658.01 1740.99h.83a4.8 4.8 0 0 0-.08-3.93c-.47-.79-1.56-1.02-2.44-.77s-1.61.87-2.3 1.47c-.57.49-1.15 1.01-1.41 1.72s-.05 1.64.64 1.94c.51.22 1.09.04 1.64.01s1.24.28 1.22.83l1.37-1.01M3104.03 1981.34l.59.58a4.7 4.7 0 0 0 2.72-2.84c.23-.89-.39-1.82-1.19-2.27s-1.75-.52-2.67-.58c-.75-.05-1.53-.1-2.21.22s-1.19 1.13-.91 1.82c.21.51.75.79 1.15 1.17s.68 1.07.27 1.45l1.68.25M2586.5 1813.12l.72-.41a4.7 4.7 0 0 0-1.98-3.39c-.79-.46-1.86-.13-2.51.52s-.98 1.54-1.29 2.41c-.26.71-.52 1.45-.4 2.19s.76 1.46 1.5 1.38c.55-.06.97-.5 1.44-.79s1.22-.36 1.47.14l.7-1.55M2230.88 1304.13l.67-.49a4.7 4.7 0 0 0-2.37-3.13c-.84-.36-1.86.09-2.43.82s-.79 1.65-1 2.54c-.17.73-.34 1.5-.13 2.22s.93 1.36 1.66 1.19c.54-.12.9-.61 1.33-.95s1.16-.5 1.47-.04l.51-1.62M1823.18 965.81l-.02-.83a4.7 4.7 0 0 0-3.93.15c-.78.48-.99 1.58-.72 2.46s.9 1.59 1.51 2.27c.5.56 1.03 1.14 1.74 1.38s1.64.02 1.92-.68c.21-.51.02-1.09-.02-1.64s.26-1.24.81-1.23l-1.04-1.35M2097.89 585.06l-.02-.83a4.7 4.7 0 0 0-3.93.15c-.78.48-.99 1.58-.72 2.46s.9 1.59 1.51 2.27c.5.56 1.03 1.14 1.74 1.38s1.64.02 1.92-.68c.21-.51.02-1.09-.02-1.64s.26-1.24.81-1.23l-1.04-1.35M2765.49 377.82l-.02-.83a4.7 4.7 0 0 0-3.93.15c-.78.48-.99 1.58-.72 2.46s.9 1.59 1.51 2.27c.5.56 1.03 1.14 1.74 1.38s1.64.02 1.92-.68c.21-.51.02-1.09-.02-1.64s.26-1.24.81-1.23l-1.04-1.35M3308.69 520.57l-.02-.83a4.7 4.7 0 0 0-3.93.15c-.78.48-.99 1.58-.72 2.46s.9 1.59 1.51 2.27c.5.56 1.03 1.14 1.74 1.38s1.64.02 1.92-.68c.21-.51.02-1.09-.02-1.64s.26-1.24.81-1.23l-1.04-1.35M3777.09 328.87l-.33-.61a4 4 0 0 0-2.88 1.61c-.4.66-.14 1.56.4 2.11s1.28.85 2 1.12c.59.23 1.21.46 1.83.37s1.23-.61 1.18-1.24c-.04-.46-.4-.82-.64-1.22s-.28-1.03.14-1.23l-1.29-.61M4281.5 507.88l-.02-.83a4.7 4.7 0 0 0-3.93.15c-.78.48-.99 1.58-.72 2.46s.9 1.59 1.51 2.27c.5.56 1.03 1.14 1.74 1.38s1.64.02 1.92-.68c.21-.51.02-1.09-.02-1.64s.26-1.24.81-1.23l-1.04-1.35M4695.12 528.65l.57-.6a4.8 4.8 0 0 0-2.87-2.68c-.89-.22-1.82.41-2.25 1.22s-.5 1.76-.55 2.68c-.04.75-.08 1.53.25 2.21s1.14 1.18 1.83.89c.51-.21.78-.75 1.15-1.17s1.06-.69 1.45-.29l.23-1.69M4680.93 847.18l.57.6a4.7 4.7 0 0 0 2.81-2.75c.25-.88-.33-1.83-1.11-2.3s-1.73-.58-2.65-.67c-.75-.08-1.53-.15-2.22.15s-1.23 1.09-.97 1.79c.19.52.72.82 1.11 1.2s.64 1.09.23 1.46l1.67.3M4357.81 1182.81l-.68-.47a4.7 4.7 0 0 0-2.17 3.27c-.07.92.7 1.73 1.57 2.02s1.82.2 2.73.1c.75-.08 1.53-.17 2.14-.61s.97-1.32.58-1.96c-.29-.47-.87-.65-1.34-.95s-.86-.93-.53-1.38l-1.7.05M3993.57 1374.63l-.02-.83a4.7 4.7 0 0 0-3.93.15c-.78.48-.99 1.58-.72 2.46s.9 1.59 1.51 2.27c.5.56 1.03 1.14 1.74 1.38s1.64.02 1.92-.68c.21-.51.02-1.09-.02-1.64s.26-1.24.81-1.23l-1.04-1.35M3477.89 1664.18l-.02-.83a4.7 4.7 0 0 0-3.93.15c-.78.48-.99 1.58-.72 2.46s.9 1.59 1.51 2.27c.5.56 1.03 1.14 1.74 1.38s1.64.02 1.92-.68c.21-.51.02-1.09-.02-1.64s.26-1.24.81-1.23l-1.04-1.35M3425.54 1933.54l.79-.23a4.7 4.7 0 0 0-1.16-3.75c-.67-.63-1.78-.55-2.56-.06s-1.3 1.28-1.81 2.05c-.41.63-.83 1.29-.88 2.04s.41 1.59 1.15 1.68c.55.07 1.06-.27 1.58-.44s1.26-.07 1.4.46l1.03-1.35M435.67 458.17c-.55-.76-1.92-.48-2.29.38s.13 1.93.95 2.38 1.85.39 2.73.07c.97-.35 1.93-1.29 1.63-2.27-.19-.63-.86-1.02-1.52-1.09s-1.31.12-1.95.31M281.81 1346.76c-.09-1.4-2.04-2.14-3.2-1.36s-1.38 2.54-.71 3.77 2.02 1.98 3.39 2.27c1.51.33 3.47-.08 3.88-1.57.26-.95-.27-1.99-1.05-2.6s-1.76-.9-2.71-1.17M1979.95 2254.94c-.8.5-.61 1.88.22 2.31s1.93 0 2.44-.78.52-1.81.26-2.72c-.28-.99-1.15-2.01-2.15-1.78-.65.15-1.08.79-1.19 1.44s.03 1.32.17 1.96M4280.9 2098.57c-.25-.9-1.63-1.12-2.28-.45s-.56 1.85.05 2.56 1.59 1.02 2.53 1.02c1.03 0 2.26-.53 2.32-1.55.04-.66-.45-1.26-1.04-1.56a5 5 0 0 0-1.93-.39M5002.88 1877.53c-.55-.76-1.92-.48-2.29.38s.13 1.93.95 2.38 1.85.39 2.73.07c.97-.35 1.93-1.29 1.63-2.27-.19-.63-.86-1.02-1.52-1.09s-1.31.12-1.95.31M2759.4 815.98c-.73-1-2.53-.64-3.03.5s.17 2.54 1.25 3.14 2.44.52 3.6.09c1.28-.47 2.55-1.7 2.15-3-.25-.84-1.14-1.35-2.01-1.44s-1.73.16-2.57.41M2420.23 392.76c-.55-.76-1.92-.48-2.29.38s.13 1.93.95 2.38 1.85.39 2.73.07c.97-.35 1.93-1.29 1.63-2.27-.19-.63-.86-1.02-1.52-1.09s-1.31.12-1.95.31l.46.22ZM1379.35 1448.11c-1.4-.23-2.82.18-4.19.6l-4.05 1.22c-.41.12-.91.36-.89.79.02.67 1.1.59 1.61 1.03.73.63-.02 2.02.64 2.72.49.52 1.37.26 1.93-.18s1.04-1.05 1.74-1.2c1.34-.3 2.66 1.26 3.94.77.34-.74.42-1.58.24-2.37l-.75.64c1.6.08 2.96.66 2.94-1.15-.02-1.39-2.01-2.67-3.16-2.86ZM1601.71 2269.69c-1.4-.23-2.82.18-4.19.6l-4.05 1.22c-.41.12-.91.36-.89.79.02.67 1.1.59 1.61 1.03.73.63-.02 2.02.64 2.72.49.52 1.37.26 1.93-.18s1.04-1.05 1.74-1.2c1.34-.3 2.66 1.26 3.94.77.34-.74.42-1.58.24-2.37l-.75.64c1.6.08 2.96.66 2.94-1.15-.02-1.39-2.01-2.67-3.16-2.86ZM1490.8 448.24c-.61-1.29-1.76-2.22-2.87-3.1l-3.31-2.64c-.34-.27-.81-.54-1.16-.29-.54.4.14 1.24.07 1.91-.11.96-1.67 1.13-1.87 2.07-.15.7.57 1.28 1.25 1.48s1.45.26 1.98.74c1.01.93.48 2.91 1.61 3.68.8-.14 1.54-.55 2.09-1.15l-.95-.25c.85 1.36 1.14 2.81 2.62 1.76 1.13-.8 1.05-3.17.55-4.23ZM216.92 362.3c-1.4-.23-2.82.18-4.19.6l-4.05 1.22c-.41.12-.91.36-.89.79.02.67 1.1.59 1.61 1.03.73.63-.02 2.02.64 2.72.49.52 1.37.26 1.93-.18s1.04-1.05 1.74-1.2c1.34-.3 2.66 1.26 3.94.77.34-.74.42-1.58.24-2.37l-.75.64c1.6.08 2.96.66 2.94-1.15-.02-1.39-2.01-2.67-3.16-2.86ZM991.53 2332.43c-1.34-.49-2.81-.34-4.22-.19l-4.21.45c-.43.05-.96.19-1.02.61-.1.67.97.78 1.39 1.31.6.75-.39 1.98.13 2.79.38.6 1.3.51 1.93.18s1.22-.84 1.93-.86c1.37-.04 2.38 1.73 3.73 1.49.47-.66.71-1.48.68-2.29l-.85.49c1.56.37 2.79 1.2 3.1-.58.24-1.37-1.48-2.99-2.58-3.4ZM1939.07 1865.76c-.16-1.41-.95-2.67-1.71-3.87l-2.28-3.57c-.23-.36-.59-.77-1-.65-.64.2-.27 1.22-.55 1.83-.41.87-1.94.53-2.44 1.36-.37.61.12 1.39.7 1.81s1.29.72 1.63 1.34c.65 1.21-.49 2.9.33 4.01.8.12 1.64-.02 2.35-.41l-.82-.54c.36 1.56.17 3.03 1.9 2.51 1.33-.39 2.02-2.66 1.89-3.82M3833.55 780.77c-.43-1.28-1.65-2.06-2.83-2.8l-3.52-2.21c-.36-.22-.89-.43-1.4-.08-.8.54-.15 1.31-.42 2.06-.39 1.06-2.42 1.55-2.93 2.61-.37.78.39 1.27 1.2 1.36s1.78 0 2.32.42c1.03.82-.16 3.06 1.08 3.68a8 8 0 0 0 2.96-1.66l-1.15-.08c.72 1.31.71 2.83 2.86 1.4 1.65-1.09 2.18-3.64 1.82-4.69ZM1145.26 447.54c-1.4-.23-2.82.18-4.19.6l-4.05 1.22c-.41.12-.91.36-.89.79.02.67 1.1.59 1.61 1.03.73.63-.02 2.02.64 2.72.49.52 1.37.26 1.93-.18s1.04-1.05 1.74-1.2c1.34-.3 2.66 1.26 3.94.77.34-.74.42-1.58.24-2.37l-.75.64c1.6.08 2.96.66 2.94-1.15-.02-1.39-2.01-2.67-3.16-2.86ZM3179.89 2343.54c-5.2-1.86-11.92-3.36-15.48.87-3.24 3.85-1.38 9.65.61 14.27l9.06 1.08c.11-3.4 4.1-6.05 7.28-4.83l-.66-8.86M4136.03 2267c-1.13-5.4-3.38-11.92-8.84-12.73-4.97-.74-8.95 3.87-11.84 7.99l3.82 8.29c2.96-1.68 7.3.33 7.92 3.68l7.2-5.2M5051.27 2267.87c-3.84 1.49-8.37 3.93-8.31 8.05.05 3.75 3.93 6.12 7.31 7.75l5.64-3.82c-1.6-1.98-.64-5.42 1.75-6.28l-4.7-4.68M5307.63 275.72c-3.39-4.36-8.27-9.23-13.53-7.56-4.79 1.51-6.34 7.41-7.13 12.37l7.07 5.77c1.92-2.81 6.71-2.91 8.74-.17l4.19-7.83M1116.22 962.85c-5.2-1.86-11.92-3.36-15.48.87-3.24 3.85-1.38 9.65.61 14.27l9.06 1.08c.11-3.4 4.1-6.05 7.28-4.83l-.66-8.86M552.98 1938.04c-5.2-1.86-11.92-3.36-15.48.87-3.24 3.85-1.38 9.65.61 14.27l9.06 1.08c.11-3.4 4.1-6.05 7.28-4.83l-.66-8.86M628.14 1520c.06-5.07-.58-11.42-4.89-13.56-3.93-1.95-8.02 1.11-11.13 4l1.61 8.32c2.73-.72 5.91 2.19 5.8 5.31l6.84-2.73M361.45 646.11c-.79-1.79-3.55-1.82-5.02-.52s-1.96 3.35-2.38 5.26c-.55 2.48-1.1 5.01-.9 7.54s1.25 5.12 3.34 6.58 5.28 1.4 6.93-.53c1.75-2.05 1.24-5.13.62-7.75l-1.95-8.31M4369.12 620.9l4.65 1.12a25 25 0 0 0-1.21-14.3l-12.87-1.26c1.98 5.15 4.71 10 8.09 14.36M4476.5 979.38l1.9 4.38a24.7 24.7 0 0 0 10.68-9.58l-6.74-11.03a57 57 0 0 0-6.6 15.1M4596.2 1339.77l4.65 1.12a25 25 0 0 0-1.21-14.3l-12.87-1.26c1.98 5.15 4.71 10 8.09 14.36M3466.89 897.15l4.65 1.12a25 25 0 0 0-1.21-14.3l-12.87-1.26c1.98 5.15 4.71 10 8.09 14.36M3752.41 1365.63l1.9 4.38a24.7 24.7 0 0 0 10.68-9.58l-6.74-11.03a57 57 0 0 0-6.6 15.1M3116.65 1772.15l4.74-.64a24.8 24.8 0 0 0-6.32-12.88l-12.45 3.5a56 56 0 0 0 12.75 10.44M2426.8 1948l4.15-2.37a25 25 0 0 0-10.68-9.58l-10.23 7.9a57 57 0 0 0 15.73 4.92M1833.4 1401.21l-4.62 1.21a24.7 24.7 0 0 0 7.85 12.01l11.93-4.99a57 57 0 0 0-13.93-8.81M1226.02 926.65l1.9 4.38a24.7 24.7 0 0 0 10.68-9.58l-6.74-11.03a57 57 0 0 0-6.6 15.1M642.16 1239.09l4.78.13c0-4.85-1.47-9.7-4.18-13.73l-12.85 1.46a57 57 0 0 0 10.91 12.35M524.89 2085.27l-2.94 3.77a24.7 24.7 0 0 0 13.52 4.8l6.46-11.2c-5.5-.32-11.06.16-16.42 1.43M1336.08 2094.8l-3.04 3.69a24.8 24.8 0 0 0 13.38 5.17l6.76-11.02a57 57 0 0 0-16.45.99M2637.26 1390.93l-1.71 4.46a24.7 24.7 0 0 0 14.33.63l2.9-12.6a57 57 0 0 0-15.28 6.18M5037 360.64l3.12.05-3.01-8.36c-.3-.84-.64-1.73-1.33-2.3s-1.87-.65-2.41.07l2.23 9.37 1.8.51M2898.03 471.67l3.12.05-3.01-8.36c-.3-.84-.64-1.73-1.33-2.3s-1.87-.65-2.41.07l2.23 9.37 1.8.51M2464.81 723.8l-1.56-2.71-5.63 6.88c-.57.69-1.16 1.44-1.29 2.32s.4 1.94 1.29 2.03l6.89-6.73-.49-1.81M1580.82 430.44l-.03 3.12 8.34-3.06c.84-.31 1.73-.65 2.29-1.35s.64-1.87-.08-2.4l-9.35 2.3-.5 1.8M780.15 660.6l-.42-3.09-7.81 4.24a5 5 0 0 0-2.07 1.66c-.46.77-.36 1.95.43 2.37l8.92-3.63.23-1.86M415.34 1097.99l1.97-2.42-8.43-2.81c-.85-.28-1.75-.57-2.63-.38s-1.67 1.07-1.43 1.93l8.75 4.04 1.52-1.1M413.16 1800.25l1.88 2.49 4.72-7.53c.48-.76.97-1.57.99-2.47s-.64-1.87-1.54-1.85l-5.99 7.54.71 1.73M788.92 2138.69l1.67 2.63 5.32-7.12c.54-.72 1.09-1.49 1.19-2.38s-.49-1.92-1.38-1.97l-6.59 7.03.57 1.78M1093.1 1792.19l2.83-1.31-6.36-6.21c-.64-.63-1.33-1.28-2.2-1.49s-1.97.23-2.14 1.11l6.1 7.46 1.84-.32M1857.76 1943.02l3.12.05-3.01-8.36c-.3-.84-.64-1.73-1.33-2.3s-1.87-.65-2.41.07l2.23 9.37 1.8.51M2523.79 2160.62l2.88-1.21-6.13-6.43c-.62-.65-1.28-1.33-2.15-1.57s-1.97.16-2.17 1.03l5.83 7.67 1.85-.26M3421.37 2061.16l1.07 2.93 6.72-5.81c.68-.59 1.39-1.22 1.67-2.07s-.06-1.98-.93-2.22l-7.94 5.46.17 1.86M4500.48 1878.79l.25 3.11 8.03-3.8c.81-.38 1.66-.8 2.16-1.55s.47-1.92-.3-2.39l-9.11 3.12-.34 1.84M4912.89 1537.05l2.07 2.34 4.13-7.86c.42-.79.85-1.64.8-2.53s-.78-1.82-1.67-1.73l-5.4 7.98.84 1.67M5106.78 815.99l1.25 2.86 6.34-6.22c.64-.63 1.31-1.3 1.53-2.17s-.19-1.97-1.06-2.16l-7.58 5.94.29 1.85M4008.88 1728.29l.02.83c1.25.52 2.72.47 3.93-.15.78-.48.99-1.58.72-2.46s-.9-1.59-1.51-2.27c-.5-.56-1.03-1.14-1.74-1.38s-1.64-.02-1.92.68c-.21.51-.02 1.09.02 1.64s-.26 1.24-.81 1.23l1.04 1.35M2939.87 1040.25l.64.92a6.5 6.5 0 0 0 4.34-3.09c.53-1.13-.05-2.52-1.01-3.32s-2.2-1.14-3.41-1.45c-.98-.26-2.02-.52-3-.27s-1.87 1.2-1.68 2.2c.14.74.79 1.25 1.24 1.85s.63 1.6 0 2l2.18.76M2025.44 1021.82l-.36.75a4.7 4.7 0 0 0 3.57 1.65c.92-.08 1.6-.96 1.76-1.86s-.08-1.83-.31-2.71c-.19-.72-.41-1.48-.93-2.02s-1.45-.76-2.02-.27c-.42.36-.51.96-.73 1.47s-.79.99-1.28.73l.31 1.67M1772.85 756.53h-.83a4.8 4.8 0 0 0 .08 3.93c.47.79 1.56 1.02 2.44.77s1.61-.87 2.3-1.47c.57-.49 1.15-1.01 1.41-1.72s.05-1.64-.64-1.94c-.51-.22-1.09-.04-1.64-.01s-1.24-.28-1.22-.83l-1.37 1.01M2326.84 516.18l-.59-.58a4.7 4.7 0 0 0-2.72 2.84c-.23.89.39 1.82 1.19 2.27s1.75.52 2.67.58c.75.05 1.53.1 2.21-.22s1.19-1.13.91-1.82c-.21-.51-.75-.79-1.15-1.17s-.68-1.07-.27-1.45l-1.68-.25M2844.37 684.4l-.72.41a4.7 4.7 0 0 0 1.98 3.39c.79.46 1.86.13 2.51-.52s.98-1.54 1.29-2.41c.26-.71.52-1.45.4-2.19s-.76-1.46-1.5-1.38c-.55.06-.97.5-1.44.79s-1.22.36-1.47-.14l-.7 1.55M3199.98 1193.4l-.67.49a4.7 4.7 0 0 0 2.37 3.13c.84.36 1.86-.09 2.43-.82s.79-1.65 1-2.54c.17-.73.34-1.5.13-2.22s-.93-1.36-1.66-1.19c-.54.12-.9.61-1.33.95s-1.16.5-1.47.04l-.51 1.62M3607.69 1531.71l.02.83c1.25.52 2.72.47 3.93-.15.78-.48.99-1.58.72-2.46s-.9-1.59-1.51-2.27c-.5-.56-1.03-1.14-1.74-1.38s-1.64-.02-1.92.68c-.21.51-.02 1.09.02 1.64s-.26 1.24-.81 1.23l1.04 1.35M3332.98 1912.46l.02.83c1.25.52 2.72.47 3.93-.15.78-.48.99-1.58.72-2.46s-.9-1.59-1.51-2.27c-.5-.56-1.03-1.14-1.74-1.38s-1.64-.02-1.92.68c-.21.51-.02 1.09.02 1.64s-.26 1.24-.81 1.23l1.04 1.35M2665.38 2119.71l.02.83c1.25.52 2.72.47 3.93-.15.78-.48.99-1.58.72-2.46a6 6 0 0 0-1.51-2.27c-.5-.56-1.03-1.14-1.74-1.38s-1.64-.02-1.92.68c-.21.51-.02 1.09.02 1.64s-.26 1.24-.81 1.23l1.04 1.35M2122.17 1976.96l.02.83c1.25.52 2.72.47 3.93-.15.78-.48.99-1.58.72-2.46s-.9-1.59-1.51-2.27c-.5-.56-1.03-1.14-1.74-1.38s-1.64-.02-1.92.68c-.21.51-.02 1.09.02 1.64s-.26 1.24-.81 1.23l1.04 1.35M1653.78 2168.65l.33.61a4 4 0 0 0 2.88-1.61c.4-.66.14-1.56-.4-2.11s-1.28-.85-2-1.12c-.59-.23-1.21-.46-1.83-.37s-1.23.61-1.18 1.24c.04.46.4.82.64 1.22s.28 1.03-.14 1.23l1.29.61M1149.37 1989.64l.02.83c1.25.52 2.72.47 3.93-.15.78-.48.99-1.58.72-2.46a6 6 0 0 0-1.51-2.27c-.5-.56-1.03-1.14-1.74-1.38s-1.64-.02-1.92.68c-.21.51-.02 1.09.02 1.64s-.26 1.24-.81 1.23l1.04 1.35M735.74 1968.87l-.57.6a4.8 4.8 0 0 0 2.87 2.68c.89.22 1.82-.41 2.25-1.22s.5-1.76.55-2.68c.04-.75.08-1.53-.25-2.21s-1.14-1.18-1.83-.89c-.51.21-.78.75-1.15 1.17s-1.06.69-1.45.29l-.23 1.69M749.94 1650.35l-.57-.6a4.7 4.7 0 0 0-2.81 2.75c-.25.88.33 1.83 1.11 2.3s1.73.58 2.65.67c.75.08 1.53.15 2.22-.15s1.23-1.09.97-1.79c-.19-.52-.72-.82-1.11-1.2s-.64-1.09-.23-1.46l-1.67-.3M1073.06 1314.72l.68.47a4.7 4.7 0 0 0 2.17-3.27c.07-.92-.7-1.73-1.57-2.02s-1.82-.2-2.73-.1c-.75.08-1.53.17-2.14.61s-.97 1.32-.58 1.96c.29.47.87.65 1.34.95s.86.93.53 1.38l1.7-.05M1437.3 1122.89l.02.83c1.25.52 2.72.47 3.93-.15.78-.48.99-1.58.72-2.46a6 6 0 0 0-1.51-2.27c-.5-.56-1.03-1.14-1.74-1.38s-1.64-.02-1.92.68c-.21.51-.02 1.09.02 1.64s-.26 1.24-.81 1.23l1.04 1.35M1952.98 833.34l.02.83c1.25.52 2.72.47 3.93-.15.78-.48.99-1.58.72-2.46s-.9-1.59-1.51-2.27c-.5-.56-1.03-1.14-1.74-1.38s-1.64-.02-1.92.68c-.21.51-.02 1.09.02 1.64s-.26 1.24-.81 1.23l1.04 1.35M2005.33 563.98l-.79.23a4.7 4.7 0 0 0 1.16 3.75c.67.63 1.78.55 2.56.06s1.3-1.28 1.81-2.05c.41-.63.83-1.29.88-2.04s-.41-1.59-1.15-1.68c-.55-.07-1.06.27-1.58.44s-1.26.07-1.4-.46l-1.03 1.35M4995.2 2039.36c.55.76 1.92.48 2.29-.38s-.13-1.93-.95-2.38-1.85-.39-2.73-.07c-.97.35-1.93 1.29-1.63 2.27.19.63.86 1.02 1.52 1.09s1.31-.12 1.95-.31M5149.06 1150.76c.09 1.4 2.04 2.14 3.2 1.36s1.38-2.54.71-3.77-2.02-1.98-3.39-2.27c-1.51-.33-3.47.08-3.88 1.57-.26.95.27 1.99 1.05 2.6s1.76.9 2.71 1.17M3450.91 242.58c.8-.5.61-1.88-.22-2.31s-1.93 0-2.44.78-.52 1.81-.26 2.72c.28.99 1.15 2.01 2.15 1.78.65-.15 1.08-.79 1.19-1.44s-.03-1.32-.17-1.96M1149.97 398.95c.25.9 1.63 1.12 2.28.45s.56-1.85-.05-2.56-1.59-1.02-2.53-1.02c-1.03 0-2.26.53-2.32 1.55-.04.66.45 1.26 1.04 1.56.59.29 1.27.35 1.93.39M427.99 619.99c.55.76 1.92.48 2.29-.38s-.13-1.93-.95-2.38-1.85-.39-2.73-.07c-.97.35-1.93 1.29-1.63 2.27.19.63.86 1.02 1.52 1.09s1.31-.12 1.95-.31M2671.47 1681.55c.73 1 2.53.64 3.03-.5s-.17-2.54-1.25-3.14a4.4 4.4 0 0 0-3.6-.09c-1.28.47-2.55 1.7-2.15 3 .25.84 1.14 1.35 2.01 1.44s1.73-.16 2.57-.41M3010.63 2104.76c.55.76 1.92.48 2.29-.38s-.13-1.93-.95-2.38-1.85-.39-2.73-.07c-.97.35-1.93 1.29-1.63 2.27.19.63.86 1.02 1.52 1.09s1.31-.12 1.95-.31l-.46-.22ZM4051.52 1049.41c1.4.23 2.82-.18 4.19-.6l4.05-1.22c.41-.12.91-.36.89-.79-.02-.67-1.1-.59-1.61-1.03-.73-.63.02-2.02-.64-2.72-.49-.52-1.37-.26-1.93.18s-1.04 1.05-1.74 1.2c-1.34.3-2.66-1.26-3.94-.77a3.7 3.7 0 0 0-.24 2.37l.75-.64c-1.6-.08-2.96-.66-2.94 1.15.02 1.39 2.01 2.67 3.16 2.86ZM3829.16 227.83c1.4.23 2.82-.18 4.19-.6l4.05-1.22c.41-.12.91-.36.89-.79-.02-.67-1.1-.59-1.61-1.03-.73-.63.02-2.02-.64-2.72-.49-.52-1.37-.26-1.93.18s-1.04 1.05-1.74 1.2c-1.34.3-2.66-1.26-3.94-.77a3.7 3.7 0 0 0-.24 2.37l.75-.64c-1.6-.08-2.96-.66-2.94 1.15.02 1.39 2.01 2.67 3.16 2.86ZM3940.06 2049.28c.61 1.29 1.76 2.22 2.87 3.1l3.31 2.64c.34.27.81.54 1.16.29.54-.4-.14-1.24-.07-1.91.11-.96 1.67-1.13 1.87-2.07.15-.7-.57-1.28-1.25-1.48s-1.45-.26-1.98-.74c-1.01-.93-.48-2.91-1.61-3.68-.8.14-1.54.55-2.09 1.15l.95.25c-.85-1.36-1.14-2.81-2.62-1.76-1.13.8-1.05 3.17-.55 4.23ZM5213.95 2135.22c1.4.23 2.82-.18 4.19-.6l4.05-1.22c.41-.12.91-.36.89-.79-.02-.67-1.1-.59-1.61-1.03-.73-.63.02-2.02-.64-2.72-.49-.52-1.37-.26-1.93.18s-1.04 1.05-1.74 1.2c-1.34.3-2.66-1.26-3.94-.77a3.7 3.7 0 0 0-.24 2.37l.75-.64c-1.6-.08-2.96-.66-2.94 1.15.02 1.39 2.01 2.67 3.16 2.86ZM4439.33 165.09c1.34.49 2.81.34 4.22.19l4.21-.45c.43-.05.96-.19 1.02-.61.1-.67-.97-.78-1.39-1.31-.6-.75.39-1.98-.13-2.79-.38-.6-1.3-.51-1.93-.18s-1.22.84-1.93.86c-1.37.04-2.38-1.73-3.73-1.49a3.7 3.7 0 0 0-.68 2.29l.85-.49c-1.56-.37-2.79-1.2-3.1.58-.24 1.37 1.48 2.99 2.58 3.4ZM3491.8 631.76c.16 1.41.95 2.67 1.71 3.87l2.28 3.57c.23.36.59.77 1 .65.64-.2.27-1.22.55-1.83.41-.87 1.94-.53 2.44-1.36.37-.61-.12-1.39-.7-1.81s-1.29-.72-1.63-1.34c-.65-1.21.49-2.9-.33-4.01-.8-.12-1.64.02-2.35.41l.82.54c-.36-1.56-.17-3.03-1.9-2.51-1.33.39-2.02 2.66-1.89 3.82M1597.32 1716.76c.43 1.28 1.65 2.06 2.83 2.8l3.52 2.21c.36.22.89.43 1.4.08.8-.54.15-1.31.42-2.06.39-1.06 2.42-1.55 2.93-2.61.37-.78-.39-1.27-1.2-1.36s-1.78 0-2.32-.42c-1.03-.82.16-3.06-1.08-3.68-1.05.31-2.11.9-2.96 1.66l1.15.08c-.72-1.31-.71-2.83-2.86-1.4-1.65 1.09-2.18 3.64-1.82 4.69ZM4285.6 2049.98c1.4.23 2.82-.18 4.19-.6l4.05-1.22c.41-.12.91-.36.89-.79-.02-.67-1.1-.59-1.61-1.03-.73-.63.02-2.02-.64-2.72-.49-.52-1.37-.26-1.93.18s-1.04 1.05-1.74 1.2c-1.34.3-2.66-1.26-3.94-.77a3.7 3.7 0 0 0-.24 2.37l.75-.64c-1.6-.08-2.96-.66-2.94 1.15.02 1.39 2.01 2.67 3.16 2.86ZM2250.97 153.98c5.2 1.86 11.92 3.36 15.48-.87 3.24-3.85 1.38-9.65-.61-14.27l-9.06-1.08c-.11 3.4-4.1 6.05-7.28 4.83l.66 8.86M1294.84 230.52c1.13 5.4 3.38 11.92 8.84 12.73 4.97.74 8.95-3.87 11.84-7.99l-3.82-8.29c-2.96 1.68-7.3-.33-7.92-3.68l-7.2 5.2M379.6 229.65c3.84-1.49 8.37-3.93 8.31-8.05-.05-3.75-3.93-6.12-7.31-7.75l-5.64 3.82c1.6 1.98.64 5.42-1.75 6.28l4.7 4.68M123.24 2221.8c3.39 4.36 8.27 9.23 13.53 7.56 4.79-1.51 6.34-7.41 7.13-12.37l-7.07-5.77c-1.92 2.81-6.71 2.91-8.74.17l-4.19 7.83M4314.64 1534.68c5.2 1.86 11.92 3.36 15.48-.87 3.24-3.85 1.38-9.65-.61-14.27l-9.06-1.08c-.11 3.4-4.1 6.05-7.28 4.83l.66 8.86M4877.88 559.48c5.2 1.86 11.92 3.36 15.48-.87 3.24-3.85 1.38-9.65-.61-14.27l-9.06-1.08c-.11 3.4-4.1 6.05-7.28 4.83l.66 8.86M4802.73 977.52c-.06 5.07.58 11.42 4.89 13.56 3.93 1.95 8.02-1.11 11.13-4l-1.61-8.32c-2.73.72-5.91-2.19-5.8-5.31l-6.84 2.73M5069.42 1851.41c.79 1.79 3.55 1.82 5.02.52s1.96-3.35 2.38-5.26c.55-2.48 1.1-5.01.9-7.54s-1.25-5.12-3.34-6.58-5.28-1.4-6.93.53c-1.75 2.05-1.24 5.13-.62 7.75l1.95 8.31M910.66 3172.49l-4.65-1.12a25 25 0 0 0 1.21 14.3l12.87 1.26a57 57 0 0 0-8.09-14.36M803.29 2814l-1.9-4.38a24.7 24.7 0 0 0-10.68 9.58l6.74 11.03a57 57 0 0 0 6.6-15.1M683.59 2453.61l-4.65-1.12a25 25 0 0 0 1.21 14.3l12.87 1.26a57 57 0 0 0-8.09-14.36M1812.9 2896.23l-4.65-1.12a25 25 0 0 0 1.21 14.3l12.87 1.26a57 57 0 0 0-8.09-14.36M1527.38 2427.76l-1.9-4.38a24.7 24.7 0 0 0-10.68 9.58l6.74 11.03a57 57 0 0 0 6.6-15.1M2163.14 2021.24l-4.74.64a24.8 24.8 0 0 0 6.32 12.88l12.45-3.5a56 56 0 0 0-12.75-10.44M2852.98 1845.38l-4.15 2.37a25 25 0 0 0 10.68 9.58l10.23-7.9a57 57 0 0 0-15.73-4.92M3446.38 2392.17l4.62-1.21a24.7 24.7 0 0 0-7.85-12.01l-11.93 4.99a57 57 0 0 0 13.93 8.81M4053.76 2866.73l-1.9-4.38a24.7 24.7 0 0 0-10.68 9.58l6.74 11.03a57 57 0 0 0 6.6-15.1M4637.63 2554.29l-4.78-.13c0 4.85 1.47 9.7 4.18 13.73l12.85-1.46a57 57 0 0 0-10.91-12.35M4754.9 1708.11l2.94-3.77a24.7 24.7 0 0 0-13.52-4.8l-6.46 11.2c5.5.32 11.06-.16 16.42-1.43M3943.71 1698.59l3.04-3.69a24.8 24.8 0 0 0-13.38-5.17l-6.76 11.02c5.49.47 11.06.14 16.45-.99M2642.53 2402.46l1.71-4.46a24.7 24.7 0 0 0-14.33-.63l-2.9 12.6a57 57 0 0 0 15.28-6.18M242.79 3432.74l-3.12-.05 3.01 8.36c.3.84.64 1.73 1.33 2.3s1.87.65 2.41-.07l-2.23-9.37-1.8-.51M2381.76 3321.71l-3.12-.05 3.01 8.36c.3.84.64 1.73 1.33 2.3s1.87.65 2.41-.07l-2.23-9.37-1.8-.51M2814.98 3069.58l1.56 2.71 5.63-6.88c.57-.69 1.16-1.44 1.29-2.32s-.4-1.94-1.29-2.03l-6.89 6.73.49 1.81M3698.97 3362.95l.03-3.12-8.34 3.06c-.84.31-1.73.65-2.29 1.35s-.64 1.87.08 2.4l9.35-2.3.5-1.8M4499.64 3132.78l.42 3.09 7.81-4.24c.79-.43 1.62-.89 2.07-1.66s.36-1.95-.43-2.37l-8.92 3.63-.23 1.86M4864.45 2695.4l-1.97 2.42 8.43 2.81c.85.28 1.75.57 2.63.38s1.67-1.07 1.43-1.93l-8.75-4.04-1.52 1.1M4866.62 1993.13l-1.88-2.49-4.72 7.53c-.48.76-.97 1.57-.99 2.47s.64 1.87 1.54 1.85l5.99-7.54-.71-1.73M4490.87 1654.69l-1.67-2.63-5.32 7.12c-.54.72-1.09 1.49-1.19 2.38s.49 1.92 1.38 1.97l6.59-7.03-.57-1.78M4186.69 2001.19l-2.83 1.31 6.36 6.21c.64.63 1.33 1.28 2.2 1.49s1.97-.23 2.14-1.11l-6.1-7.46-1.84.32M3422.02 1850.36l-3.12-.05 3.01 8.36c.3.84.64 1.73 1.33 2.3s1.87.65 2.41-.07l-2.23-9.37-1.8-.51M2756 1632.76l-2.88 1.21 6.13 6.43c.62.65 1.28 1.33 2.15 1.57s1.97-.16 2.17-1.03l-5.83-7.67-1.85.26M1858.42 1732.22l-1.07-2.93-6.72 5.81c-.68.59-1.39 1.22-1.67 2.07s.06 1.98.93 2.22l7.94-5.46-.17-1.86M779.3 1914.59l-.25-3.11-8.03 3.8c-.81.38-1.66.8-2.16 1.55s-.47 1.92.3 2.39l9.11-3.12.34-1.84M366.9 2256.33l-2.07-2.34-4.13 7.86c-.42.79-.85 1.64-.8 2.53s.78 1.82 1.67 1.73l5.4-7.98-.84-1.67M173 2977.39l-1.25-2.86-6.34 6.22c-.64.63-1.31 1.3-1.53 2.17s.19 1.97 1.06 2.16l7.58-5.94-.29-1.85M1270.91 2065.1l-.02-.83a4.7 4.7 0 0 0-3.93.15c-.78.48-.99 1.58-.72 2.46s.9 1.59 1.51 2.27c.5.56 1.03 1.14 1.74 1.38s1.64.02 1.92-.68c.21-.51.02-1.09-.02-1.64s.26-1.24.81-1.23l-1.04-1.35M2339.92 2753.13l-.64-.92a6.5 6.5 0 0 0-4.34 3.09c-.53 1.13.05 2.52 1.01 3.32s2.2 1.14 3.41 1.45c.98.26 2.02.52 3 .27s1.87-1.2 1.68-2.2c-.14-.74-.79-1.25-1.24-1.85s-.63-1.6 0-2l-2.18-.76M3254.34 2771.57l.36-.75a4.7 4.7 0 0 0-3.57-1.65c-.92.08-1.6.96-1.76 1.86s.08 1.83.31 2.71c.19.72.41 1.48.93 2.02s1.45.76 2.02.27c.42-.36.51-.96.73-1.47s.79-.99 1.28-.73l-.31-1.67M3506.93 3036.85h.83a4.8 4.8 0 0 0-.08-3.93c-.47-.79-1.56-1.02-2.44-.77s-1.61.87-2.3 1.47a4.4 4.4 0 0 0-1.41 1.72c-.26.7-.05 1.64.64 1.94.51.22 1.09.04 1.64.01s1.24.28 1.22.83l1.37-1.01M2952.95 3277.2l.59.58a4.7 4.7 0 0 0 2.72-2.84c.23-.89-.39-1.82-1.19-2.27s-1.75-.52-2.67-.58c-.75-.05-1.53-.1-2.21.22s-1.19 1.13-.91 1.82c.21.51.75.79 1.15 1.17s.68 1.07.27 1.45l1.68.25M2435.42 3108.98l.72-.41a4.7 4.7 0 0 0-1.98-3.39c-.79-.46-1.86-.13-2.51.52s-.98 1.54-1.29 2.41c-.26.71-.52 1.45-.4 2.19s.76 1.46 1.5 1.38c.55-.06.97-.5 1.44-.79s1.22-.36 1.47.14l.7-1.55M2079.8 2599.99l.67-.49a4.7 4.7 0 0 0-2.37-3.13c-.84-.36-1.86.09-2.43.82s-.79 1.65-1 2.54c-.17.73-.34 1.5-.13 2.22s.93 1.36 1.66 1.19c.54-.12.9-.61 1.33-.95s1.16-.5 1.47-.04l.51-1.62M1672.1 2261.67l-.02-.83a4.7 4.7 0 0 0-3.93.15c-.78.48-.99 1.58-.72 2.46s.9 1.59 1.51 2.27c.5.56 1.03 1.14 1.74 1.38s1.64.02 1.92-.68c.21-.51.02-1.09-.02-1.64s.26-1.24.81-1.23l-1.04-1.35M1946.81 1880.92l-.02-.83a4.7 4.7 0 0 0-3.93.15c-.78.48-.99 1.58-.72 2.46s.9 1.59 1.51 2.27c.5.56 1.03 1.14 1.74 1.38s1.64.02 1.92-.68c.21-.51.02-1.09-.02-1.64s.26-1.24.81-1.23l-1.04-1.35M2614.41 1673.68l-.02-.83a4.7 4.7 0 0 0-3.93.15c-.78.48-.99 1.58-.72 2.46s.9 1.59 1.51 2.27c.5.56 1.03 1.14 1.74 1.38s1.64.02 1.92-.68c.21-.51.02-1.09-.02-1.64s.26-1.24.81-1.23l-1.04-1.35M3157.61 1816.43l-.02-.83a4.7 4.7 0 0 0-3.93.15c-.78.48-.99 1.58-.72 2.46s.9 1.59 1.51 2.27c.5.56 1.03 1.14 1.74 1.38s1.64.02 1.92-.68c.21-.51.02-1.09-.02-1.64s.26-1.24.81-1.23l-1.04-1.35M3626.01 1624.73l-.33-.61a4 4 0 0 0-2.88 1.61c-.4.66-.14 1.56.4 2.11s1.28.85 2 1.12c.59.23 1.21.46 1.83.37s1.23-.61 1.18-1.24c-.04-.46-.4-.82-.64-1.22s-.28-1.03.14-1.23l-1.29-.61M4130.42 1803.74l-.02-.83a4.7 4.7 0 0 0-3.93.15c-.78.48-.99 1.58-.72 2.46s.9 1.59 1.51 2.27c.5.56 1.03 1.14 1.74 1.38s1.64.02 1.92-.68c.21-.51.02-1.09-.02-1.64s.26-1.24.81-1.23l-1.04-1.35M4544.04 1824.51l.57-.6a4.8 4.8 0 0 0-2.87-2.68c-.89-.22-1.82.41-2.25 1.22s-.5 1.76-.55 2.68c-.04.75-.08 1.53.25 2.21s1.14 1.18 1.83.89c.51-.21.78-.75 1.15-1.17s1.06-.69 1.45-.29l.23-1.69M4529.85 2143.04l.57.6a4.7 4.7 0 0 0 2.81-2.75c.25-.88-.33-1.83-1.11-2.3s-1.73-.58-2.65-.67c-.75-.08-1.53-.15-2.22.15s-1.23 1.09-.97 1.79c.19.52.72.82 1.11 1.2s.64 1.09.23 1.46l1.67.3M4206.73 2478.67l-.68-.47a4.7 4.7 0 0 0-2.17 3.27c-.07.92.7 1.73 1.57 2.02s1.82.2 2.73.1c.75-.08 1.53-.17 2.14-.61s.97-1.32.58-1.96c-.29-.47-.87-.65-1.34-.95s-.86-.93-.53-1.38l-1.7.05M3842.49 2670.49l-.02-.83a4.7 4.7 0 0 0-3.93.15c-.78.48-.99 1.58-.72 2.46s.9 1.59 1.51 2.27c.5.56 1.03 1.14 1.74 1.38s1.64.02 1.92-.68c.21-.51.02-1.09-.02-1.64s.26-1.24.81-1.23l-1.04-1.35M3326.81 2960.04l-.02-.83a4.7 4.7 0 0 0-3.93.15c-.78.48-.99 1.58-.72 2.46s.9 1.59 1.51 2.27c.5.56 1.03 1.14 1.74 1.38s1.64.02 1.92-.68c.21-.51.02-1.09-.02-1.64s.26-1.24.81-1.23l-1.04-1.35M3274.46 3229.4l.79-.23a4.7 4.7 0 0 0-1.16-3.75c-.67-.63-1.78-.55-2.56-.06s-1.3 1.28-1.81 2.05a4.4 4.4 0 0 0-.88 2.04c-.05.75.41 1.59 1.15 1.68.55.07 1.06-.27 1.58-.44s1.26-.07 1.4.46l1.03-1.35M284.59 1754.03c-.55-.76-1.92-.48-2.29.38s.13 1.93.95 2.38 1.85.39 2.73.07c.97-.35 1.93-1.29 1.63-2.27-.19-.63-.86-1.02-1.52-1.09s-1.31.12-1.95.31M130.73 2642.62c-.09-1.4-2.04-2.14-3.2-1.36s-1.38 2.54-.71 3.77 2.02 1.98 3.39 2.27c1.51.33 3.47-.08 3.88-1.57.26-.95-.27-1.99-1.05-2.6s-1.76-.9-2.71-1.17M1828.87 3550.8c-.8.5-.61 1.88.22 2.31s1.93 0 2.44-.78.52-1.81.26-2.72c-.28-.99-1.15-2.01-2.15-1.78-.65.15-1.08.79-1.19 1.44s.03 1.32.17 1.96M4129.82 3394.43c-.25-.9-1.63-1.12-2.28-.45s-.56 1.85.05 2.56a3.3 3.3 0 0 0 2.53 1.02c1.03 0 2.26-.53 2.32-1.55.04-.66-.45-1.26-1.04-1.56a5 5 0 0 0-1.93-.39M4851.8 3173.39c-.55-.76-1.92-.48-2.29.38s.13 1.93.95 2.38 1.85.39 2.73.07c.97-.35 1.93-1.29 1.63-2.27-.19-.63-.86-1.02-1.52-1.09s-1.31.12-1.95.31M2608.32 2111.84c-.73-1-2.53-.64-3.03.5s.17 2.54 1.25 3.14 2.44.52 3.6.09c1.28-.47 2.55-1.7 2.15-3-.25-.84-1.14-1.35-2.01-1.44s-1.73.16-2.57.41M2269.15 1688.62c-.55-.76-1.92-.48-2.29.38s.13 1.93.95 2.38 1.85.39 2.73.07c.97-.35 1.93-1.29 1.63-2.27-.19-.63-.86-1.02-1.52-1.09s-1.31.12-1.95.31l.46.22ZM1228.27 2743.97c-1.4-.23-2.82.18-4.19.6l-4.05 1.22c-.41.12-.91.36-.89.79.02.67 1.1.59 1.61 1.03.73.63-.02 2.02.64 2.72.49.52 1.37.26 1.93-.18s1.04-1.05 1.74-1.2c1.34-.3 2.66 1.26 3.94.77.34-.74.42-1.58.24-2.37l-.75.64c1.6.08 2.96.66 2.94-1.15-.02-1.39-2.01-2.67-3.16-2.86ZM1450.63 3565.55c-1.4-.23-2.82.18-4.19.6l-4.05 1.22c-.41.12-.91.36-.89.79.02.67 1.1.59 1.61 1.03.73.63-.02 2.02.64 2.72.49.52 1.37.26 1.93-.18s1.04-1.05 1.74-1.2c1.34-.3 2.66 1.26 3.94.77.34-.74.42-1.58.24-2.37l-.75.64c1.6.08 2.96.66 2.94-1.15-.02-1.39-2.01-2.67-3.16-2.86ZM1339.72 1744.1c-.61-1.29-1.76-2.22-2.87-3.1l-3.31-2.64c-.34-.27-.81-.54-1.16-.29-.54.4.14 1.24.07 1.91-.11.96-1.67 1.13-1.87 2.07-.15.7.57 1.28 1.25 1.48s1.45.26 1.98.74c1.01.93.48 2.91 1.61 3.68.8-.14 1.54-.55 2.09-1.15l-.95-.25c.85 1.36 1.14 2.81 2.62 1.76 1.13-.8 1.05-3.17.55-4.23ZM65.84 1658.16c-1.4-.23-2.82.18-4.19.6l-4.05 1.22c-.41.12-.91.36-.89.79.02.67 1.1.59 1.61 1.03.73.63-.02 2.02.64 2.72.49.52 1.37.26 1.93-.18s1.04-1.05 1.74-1.2c1.34-.3 2.66 1.26 3.94.77.34-.74.42-1.58.24-2.37l-.75.64c1.6.08 2.96.66 2.94-1.15-.02-1.39-2.01-2.67-3.16-2.86ZM840.46 3628.29c-1.34-.49-2.81-.34-4.22-.19l-4.21.45c-.43.05-.96.19-1.02.61-.1.67.97.78 1.39 1.31.6.75-.39 1.98.13 2.79.38.6 1.3.51 1.93.18s1.22-.84 1.93-.86c1.37-.04 2.38 1.73 3.73 1.49.47-.66.71-1.48.68-2.29l-.85.49c1.56.37 2.79 1.2 3.1-.58.24-1.37-1.48-2.99-2.58-3.4ZM1787.99 3161.62c-.16-1.41-.95-2.67-1.71-3.87l-2.28-3.57c-.23-.36-.59-.77-1-.65-.64.2-.27 1.22-.55 1.83-.41.87-1.94.53-2.44 1.36-.37.61.12 1.39.7 1.81s1.29.72 1.63 1.34c.65 1.21-.49 2.9.33 4.01.8.12 1.64-.02 2.35-.41l-.82-.54c.36 1.56.17 3.03 1.9 2.51 1.33-.39 2.02-2.66 1.89-3.82M3682.47 2076.63c-.43-1.28-1.65-2.06-2.83-2.8l-3.52-2.21c-.36-.22-.89-.43-1.4-.08-.8.54-.15 1.31-.42 2.06-.39 1.06-2.42 1.55-2.93 2.61-.37.78.39 1.27 1.2 1.36s1.78 0 2.32.42c1.03.82-.16 3.06 1.08 3.68a8 8 0 0 0 2.96-1.66l-1.15-.08c.72 1.31.71 2.83 2.86 1.4 1.65-1.09 2.18-3.64 1.82-4.69ZM994.18 1743.4c-1.4-.23-2.82.18-4.19.6l-4.05 1.22c-.41.12-.91.36-.89.79.02.67 1.1.59 1.61 1.03.73.63-.02 2.02.64 2.72.49.52 1.37.26 1.93-.18s1.04-1.05 1.74-1.2c1.34-.3 2.66 1.26 3.94.77.34-.74.42-1.58.24-2.37l-.75.64c1.6.08 2.96.66 2.94-1.15-.02-1.39-2.01-2.67-3.16-2.86ZM3028.81 3639.4c-5.2-1.86-11.92-3.36-15.48.87-3.24 3.85-1.38 9.65.61 14.27l9.06 1.08c.11-3.4 4.1-6.05 7.28-4.83l-.66-8.86M3984.95 3562.86c-1.13-5.4-3.38-11.92-8.84-12.73-4.97-.74-8.95 3.87-11.84 7.99l3.82 8.29c2.96-1.68 7.3.33 7.92 3.68l7.2-5.2M4900.19 3563.73c-3.84 1.49-8.37 3.93-8.31 8.05.05 3.75 3.93 6.12 7.31 7.75l5.64-3.82c-1.6-1.98-.64-5.42 1.75-6.28l-4.7-4.68M5156.55 1571.58c-3.39-4.36-8.27-9.23-13.53-7.56-4.79 1.51-6.34 7.41-7.13 12.37l7.07 5.77c1.92-2.81 6.71-2.91 8.74-.17l4.19-7.83M965.14 2258.7c-5.2-1.86-11.92-3.36-15.48.87-3.24 3.85-1.38 9.65.61 14.27l9.06 1.08c.11-3.4 4.1-6.05 7.28-4.83l-.66-8.86M401.9 3233.9c-5.2-1.86-11.92-3.36-15.48.87-3.24 3.85-1.38 9.65.61 14.27l9.06 1.08c.11-3.4 4.1-6.05 7.28-4.83l-.66-8.86M477.06 2815.86c.06-5.07-.58-11.42-4.89-13.56-3.93-1.95-8.02 1.11-11.13 4l1.61 8.32c2.73-.72 5.91 2.19 5.8 5.31l6.84-2.73M210.37 1941.97c-.79-1.79-3.55-1.82-5.02-.52s-1.96 3.35-2.38 5.26c-.55 2.48-1.1 5.01-.9 7.54s1.25 5.12 3.34 6.58 5.28 1.4 6.93-.53c1.75-2.05 1.24-5.13.62-7.75l-1.95-8.31M968.72 832.1l-4.65-1.12a25 25 0 0 0 1.21 14.3l12.87 1.26a57 57 0 0 0-8.09-14.36M861.34 473.62l-1.9-4.38a24.7 24.7 0 0 0-10.68 9.58l6.74 11.03a57 57 0 0 0 6.6-15.1M741.64 113.23l-4.65-1.12a25 25 0 0 0 1.21 14.3l12.87 1.26a57 57 0 0 0-8.09-14.36M1870.95 555.84l-4.65-1.12a25 25 0 0 0 1.21 14.3l12.87 1.26a57 57 0 0 0-8.09-14.36M1585.43 87.37l-1.9-4.38a24.7 24.7 0 0 0-10.68 9.58l6.74 11.03a57 57 0 0 0 6.6-15.1M2221.19-319.15l-4.74.64a24.8 24.8 0 0 0 6.32 12.88l12.45-3.5a56 56 0 0 0-12.75-10.44M2911.04-495.01l-4.15 2.37a25 25 0 0 0 10.68 9.58l10.23-7.9a57 57 0 0 0-15.73-4.92M3504.44 51.78l4.62-1.21a24.7 24.7 0 0 0-7.85-12.01l-11.93 4.99a57 57 0 0 0 13.93 8.81M4111.82 526.35l-1.9-4.38a24.7 24.7 0 0 0-10.68 9.58l6.74 11.03a57 57 0 0 0 6.6-15.1M4695.68 213.91l-4.78-.13c0 4.85 1.47 9.7 4.18 13.73l12.85-1.46a57 57 0 0 0-10.91-12.35M4812.95-632.27l2.94-3.77a24.7 24.7 0 0 0-13.52-4.8l-6.46 11.2c5.5.32 11.06-.16 16.42-1.43M4001.76-641.8l3.04-3.69a24.8 24.8 0 0 0-13.38-5.17l-6.76 11.02c5.49.47 11.06.14 16.45-.99M2700.58 62.07l1.71-4.46a24.7 24.7 0 0 0-14.33-.63l-2.9 12.6a57 57 0 0 0 15.28-6.18M300.84 1092.36l-3.12-.05 3.01 8.36c.3.84.64 1.73 1.33 2.3s1.87.65 2.41-.07l-2.23-9.37-1.8-.51M2439.81 981.32l-3.12-.05 3.01 8.36c.3.84.64 1.73 1.33 2.3s1.87.65 2.41-.07l-2.23-9.37-1.8-.51M2873.03 729.19l1.56 2.71 5.63-6.88c.57-.69 1.16-1.44 1.29-2.32s-.4-1.94-1.29-2.03l-6.89 6.73.49 1.81M3757.02 1022.56l.03-3.12-8.34 3.06c-.84.31-1.73.65-2.29 1.35s-.64 1.87.08 2.4l9.35-2.3.5-1.8M4557.69 792.4l.42 3.09 7.81-4.24c.79-.43 1.62-.89 2.07-1.66s.36-1.95-.43-2.37l-8.92 3.63-.23 1.86M4922.5 355.01l-1.97 2.42 8.43 2.81c.85.28 1.75.57 2.63.38s1.67-1.07 1.43-1.93l-8.75-4.04-1.52 1.1M4924.68-347.25l-1.88-2.49-4.72 7.53c-.48.76-.97 1.57-.99 2.47s.64 1.87 1.54 1.85l5.99-7.54-.71-1.73M4548.92-685.7l-1.67-2.63-5.32 7.12c-.54.72-1.09 1.49-1.19 2.38s.49 1.92 1.38 1.97l6.59-7.03-.57-1.78M4244.74-339.19l-2.83 1.31 6.36 6.21c.64.63 1.33 1.28 2.2 1.49s1.97-.23 2.14-1.11l-6.1-7.46-1.84.32M3480.08-490.02l-3.12-.05 3.01 8.36c.3.84.64 1.73 1.33 2.3s1.87.65 2.41-.07l-2.23-9.37-1.8-.51M2814.05-707.62l-2.88 1.21 6.13 6.43c.62.65 1.28 1.33 2.15 1.57s1.97-.16 2.17-1.03l-5.83-7.67-1.85.26M1916.47-608.17l-1.07-2.93-6.72 5.81c-.68.59-1.39 1.22-1.67 2.07s.06 1.98.93 2.22l7.94-5.46-.17-1.86M837.36-425.8l-.25-3.11-8.03 3.8c-.81.38-1.66.8-2.16 1.55s-.47 1.92.3 2.39l9.11-3.12.34-1.84M424.95-84.05l-2.07-2.34-4.13 7.86c-.42.79-.85 1.64-.8 2.53s.78 1.82 1.67 1.73l5.4-7.98-.84-1.67M231.06 637.01l-1.25-2.86-6.34 6.22c-.64.63-1.31 1.3-1.53 2.17s.19 1.97 1.06 2.16l7.58-5.94-.29-1.85M1328.96-275.29l-.02-.83a4.7 4.7 0 0 0-3.93.15c-.78.48-.99 1.58-.72 2.46s.9 1.59 1.51 2.27c.5.56 1.03 1.14 1.74 1.38s1.64.02 1.92-.68c.21-.51.02-1.09-.02-1.64s.26-1.24.81-1.23l-1.04-1.35M2397.97 412.75l-.64-.92a6.5 6.5 0 0 0-4.34 3.09c-.53 1.13.05 2.52 1.01 3.32s2.2 1.14 3.41 1.45c.98.26 2.02.52 3 .27s1.87-1.2 1.68-2.2c-.14-.74-.79-1.25-1.24-1.85s-.63-1.6 0-2l-2.18-.76M3312.4 431.18l.36-.75a4.7 4.7 0 0 0-3.57-1.65c-.92.08-1.6.96-1.76 1.86s.08 1.83.31 2.71c.19.72.41 1.48.93 2.02s1.45.76 2.02.27c.42-.36.51-.96.73-1.47s.79-.99 1.28-.73l-.31-1.67M3564.99 696.47h.83a4.8 4.8 0 0 0-.08-3.93c-.47-.79-1.56-1.02-2.44-.77s-1.61.87-2.3 1.47c-.57.49-1.15 1.01-1.41 1.72s-.05 1.64.64 1.94c.51.22 1.09.04 1.64.01s1.24.28 1.22.83l1.37-1.01M3011 936.82l.59.58a4.7 4.7 0 0 0 2.72-2.84c.23-.89-.39-1.82-1.19-2.27a6 6 0 0 0-2.67-.58c-.75-.05-1.53-.1-2.21.22s-1.19 1.13-.91 1.82c.21.51.75.79 1.15 1.17s.68 1.07.27 1.45l1.68.25M2493.47 768.6l.72-.41a4.7 4.7 0 0 0-1.98-3.39c-.79-.46-1.86-.13-2.51.52s-.98 1.54-1.29 2.41c-.26.71-.52 1.45-.4 2.19s.76 1.46 1.5 1.38c.55-.06.97-.5 1.44-.79s1.22-.36 1.47.14l.7-1.55M2137.86 259.6l.67-.49a4.7 4.7 0 0 0-2.37-3.13c-.84-.36-1.86.09-2.43.82s-.79 1.65-1 2.54c-.17.73-.34 1.5-.13 2.22s.93 1.36 1.66 1.19c.54-.12.9-.61 1.33-.95s1.16-.5 1.47-.04l.51-1.62M1730.15-78.71l-.02-.83a4.7 4.7 0 0 0-3.93.15c-.78.48-.99 1.58-.72 2.46s.9 1.59 1.51 2.27c.5.56 1.03 1.14 1.74 1.38s1.64.02 1.92-.68c.21-.51.02-1.09-.02-1.64s.26-1.24.81-1.23l-1.04-1.35M2004.86-459.47l-.02-.83a4.7 4.7 0 0 0-3.93.15c-.78.48-.99 1.58-.72 2.46s.9 1.59 1.51 2.27c.5.56 1.03 1.14 1.74 1.38s1.64.02 1.92-.68c.21-.51.02-1.09-.02-1.64s.26-1.24.81-1.23l-1.04-1.35M2672.46-666.71l-.02-.83a4.7 4.7 0 0 0-3.93.15c-.78.48-.99 1.58-.72 2.46s.9 1.59 1.51 2.27c.5.56 1.03 1.14 1.74 1.38s1.64.02 1.92-.68c.21-.51.02-1.09-.02-1.64s.26-1.24.81-1.23l-1.04-1.35M3215.67-523.96l-.02-.83a4.7 4.7 0 0 0-3.93.15c-.78.48-.99 1.58-.72 2.46s.9 1.59 1.51 2.27c.5.56 1.03 1.14 1.74 1.38s1.64.02 1.92-.68c.21-.51.02-1.09-.02-1.64s.26-1.24.81-1.23l-1.04-1.35M3684.06-715.65l-.33-.61a4 4 0 0 0-2.88 1.61c-.4.66-.14 1.56.4 2.11s1.28.85 2 1.12c.59.23 1.21.46 1.83.37s1.23-.61 1.18-1.24c-.04-.46-.4-.82-.64-1.22s-.28-1.03.14-1.23l-1.29-.61M4188.47-536.64l-.02-.83a4.7 4.7 0 0 0-3.93.15c-.78.48-.99 1.58-.72 2.46s.9 1.59 1.51 2.27c.5.56 1.03 1.14 1.74 1.38s1.64.02 1.92-.68c.21-.51.02-1.09-.02-1.64s.26-1.24.81-1.23l-1.04-1.35M4602.1-515.87l.57-.6a4.8 4.8 0 0 0-2.87-2.68c-.89-.22-1.82.41-2.25 1.22s-.5 1.76-.55 2.68c-.04.75-.08 1.53.25 2.21.32.68 1.14 1.18 1.83.89.51-.21.78-.75 1.15-1.17s1.06-.69 1.45-.29l.23-1.69M4587.9-197.35l.57.6a4.7 4.7 0 0 0 2.81-2.75c.25-.88-.33-1.83-1.11-2.3s-1.73-.58-2.65-.67c-.75-.08-1.53-.15-2.22.15s-1.23 1.09-.97 1.79c.19.52.72.82 1.11 1.2s.64 1.09.23 1.46l1.67.3M4264.78 138.28l-.68-.47a4.7 4.7 0 0 0-2.17 3.27c-.07.92.7 1.73 1.57 2.02s1.82.2 2.73.1c.75-.08 1.53-.17 2.14-.61s.97-1.32.58-1.96c-.29-.47-.87-.65-1.34-.95s-.86-.93-.53-1.38l-1.7.05M3900.54 330.11l-.02-.83a4.7 4.7 0 0 0-3.93.15c-.78.48-.99 1.58-.72 2.46s.9 1.59 1.51 2.27c.5.56 1.03 1.14 1.74 1.38s1.64.02 1.92-.68c.21-.51.02-1.09-.02-1.64s.26-1.24.81-1.23l-1.04-1.35M3384.86 619.66l-.02-.83a4.7 4.7 0 0 0-3.93.15c-.78.48-.99 1.58-.72 2.46s.9 1.59 1.51 2.27c.5.56 1.03 1.14 1.74 1.38s1.64.02 1.92-.68c.21-.51.02-1.09-.02-1.64s.26-1.24.81-1.23l-1.04-1.35M3332.52 889.02l.79-.23a4.7 4.7 0 0 0-1.16-3.75c-.67-.63-1.78-.55-2.56-.06s-1.3 1.28-1.81 2.05c-.41.63-.83 1.29-.88 2.04s.41 1.59 1.15 1.68c.55.07 1.06-.27 1.58-.44s1.26-.07 1.4.46l1.03-1.35M342.64-586.36c-.55-.76-1.92-.48-2.29.38s.13 1.93.95 2.38 1.85.39 2.73.07c.97-.35 1.93-1.29 1.63-2.27-.19-.63-.86-1.02-1.52-1.09s-1.31.12-1.95.31M188.78 302.24c-.09-1.4-2.04-2.14-3.2-1.36s-1.38 2.54-.71 3.77 2.02 1.98 3.39 2.27c1.51.33 3.47-.08 3.88-1.57.26-.95-.27-1.99-1.05-2.6s-1.76-.9-2.71-1.17M1886.93 1210.41c-.8.5-.61 1.88.22 2.31s1.93 0 2.44-.78.52-1.81.26-2.72c-.28-.99-1.15-2.01-2.15-1.78-.65.15-1.08.79-1.19 1.44s.03 1.32.17 1.96M4187.87 1054.05c-.25-.9-1.63-1.12-2.28-.45s-.56 1.85.05 2.56 1.59 1.02 2.53 1.02c1.03 0 2.26-.53 2.32-1.55.04-.66-.45-1.26-1.04-1.56a5 5 0 0 0-1.93-.39M4909.85 833.01c-.55-.76-1.92-.48-2.29.38s.13 1.93.95 2.38 1.85.39 2.73.07c.97-.35 1.93-1.29 1.63-2.27-.19-.63-.86-1.02-1.52-1.09s-1.31.12-1.95.31M2666.37-228.55c-.73-1-2.53-.64-3.03.5s.17 2.54 1.25 3.14 2.44.52 3.6.09c1.28-.47 2.55-1.7 2.15-3-.25-.84-1.14-1.35-2.01-1.44s-1.73.16-2.57.41M2327.21-651.76c-.55-.76-1.92-.48-2.29.38s.13 1.93.95 2.38 1.85.39 2.73.07c.97-.35 1.93-1.29 1.63-2.27-.19-.63-.86-1.02-1.52-1.09s-1.31.12-1.95.31l.46.22ZM1286.32 403.59c-1.4-.23-2.82.18-4.19.6l-4.05 1.22c-.41.12-.91.36-.89.79.02.67 1.1.59 1.61 1.03.73.63-.02 2.02.64 2.72.49.52 1.37.26 1.93-.18s1.04-1.05 1.74-1.2c1.34-.3 2.66 1.26 3.94.77.34-.74.42-1.58.24-2.37l-.75.64c1.6.08 2.96.66 2.94-1.15-.02-1.39-2.01-2.67-3.16-2.86ZM1508.68 1225.16c-1.4-.23-2.82.18-4.19.6l-4.05 1.22c-.41.12-.91.36-.89.79.02.67 1.1.59 1.61 1.03.73.63-.02 2.02.64 2.72.49.52 1.37.26 1.93-.18s1.04-1.05 1.74-1.2c1.34-.3 2.66 1.26 3.94.77.34-.74.42-1.58.24-2.37l-.75.64c1.6.08 2.96.66 2.94-1.15-.02-1.39-2.01-2.67-3.16-2.86ZM1397.78-596.28c-.61-1.29-1.76-2.22-2.87-3.1l-3.31-2.64c-.34-.27-.81-.54-1.16-.29-.54.4.14 1.24.07 1.91-.11.96-1.67 1.13-1.87 2.07-.15.7.57 1.28 1.25 1.48s1.45.26 1.98.74c1.01.93.48 2.91 1.61 3.68.8-.14 1.54-.55 2.09-1.15l-.95-.25c.85 1.36 1.14 2.81 2.62 1.76 1.13-.8 1.05-3.17.55-4.23ZM123.89-682.22c-1.4-.23-2.82.18-4.19.6l-4.05 1.22c-.41.12-.91.36-.89.79.02.67 1.1.59 1.61 1.03.73.63-.02 2.02.64 2.72.49.52 1.37.26 1.93-.18s1.04-1.05 1.74-1.2c1.34-.3 2.66 1.26 3.94.77.34-.74.42-1.58.24-2.37l-.75.64c1.6.08 2.96.66 2.94-1.15-.02-1.39-2.01-2.67-3.16-2.86ZM898.51 1287.91c-1.34-.49-2.81-.34-4.22-.19l-4.21.45c-.43.05-.96.19-1.02.61-.1.67.97.78 1.39 1.31.6.75-.39 1.98.13 2.79.38.6 1.3.51 1.93.18s1.22-.84 1.93-.86c1.37-.04 2.38 1.73 3.73 1.49.47-.66.71-1.48.68-2.29l-.85.49c1.56.37 2.79 1.2 3.1-.58.24-1.37-1.48-2.99-2.58-3.4ZM1846.04 821.24c-.16-1.41-.95-2.67-1.71-3.87l-2.28-3.57c-.23-.36-.59-.77-1-.65-.64.2-.27 1.22-.55 1.83-.41.87-1.94.53-2.44 1.36-.37.61.12 1.39.7 1.81s1.29.72 1.63 1.34c.65 1.21-.49 2.9.33 4.01.8.12 1.64-.02 2.35-.41l-.82-.54c.36 1.56.17 3.03 1.9 2.51 1.33-.39 2.02-2.66 1.89-3.82M3740.52-263.76c-.43-1.28-1.65-2.06-2.83-2.8l-3.52-2.21c-.36-.22-.89-.43-1.4-.08-.8.54-.15 1.31-.42 2.06-.39 1.06-2.42 1.55-2.93 2.61-.37.78.39 1.27 1.2 1.36s1.78 0 2.32.42c1.03.82-.16 3.06 1.08 3.68a8 8 0 0 0 2.96-1.66l-1.15-.08c.72 1.31.71 2.83 2.86 1.4 1.65-1.09 2.18-3.64 1.82-4.69ZM1052.24-596.98c-1.4-.23-2.82.18-4.19.6l-4.05 1.22c-.41.12-.91.36-.89.79.02.67 1.1.59 1.61 1.03.73.63-.02 2.02.64 2.72.49.52 1.37.26 1.93-.18s1.04-1.05 1.74-1.2c1.34-.3 2.66 1.26 3.94.77.34-.74.42-1.58.24-2.37l-.75.64c1.6.08 2.96.66 2.94-1.15-.02-1.39-2.01-2.67-3.16-2.86ZM3086.87 1299.02c-5.2-1.86-11.92-3.36-15.48.87-3.24 3.85-1.38 9.65.61 14.27l9.06 1.08c.11-3.4 4.1-6.05 7.28-4.83l-.66-8.86M4043 1222.48c-1.13-5.4-3.38-11.92-8.84-12.73-4.97-.74-8.95 3.87-11.84 7.99l3.82 8.29c2.96-1.68 7.3.33 7.92 3.68l7.2-5.2M4958.24 1223.34c-3.84 1.49-8.37 3.93-8.31 8.05.05 3.75 3.93 6.12 7.31 7.75l5.64-3.82c-1.6-1.98-.64-5.42 1.75-6.28l-4.7-4.68M5214.6-768.8c-3.39-4.36-8.27-9.23-13.53-7.56-4.79 1.51-6.34 7.41-7.13 12.37l7.07 5.77c1.92-2.81 6.71-2.91 8.74-.17l4.19-7.83M1023.2-81.68c-5.2-1.86-11.92-3.36-15.48.87-3.24 3.85-1.38 9.65.61 14.27l9.06 1.08c.11-3.4 4.1-6.05 7.28-4.83l-.66-8.86M459.96 893.52c-5.2-1.86-11.92-3.36-15.48.87-3.24 3.85-1.38 9.65.61 14.27l9.06 1.08c.11-3.4 4.1-6.05 7.28-4.83l-.66-8.86M535.11 475.48c.06-5.07-.58-11.42-4.89-13.56-3.93-1.95-8.02 1.11-11.13 4l1.61 8.32c2.73-.72 5.91 2.19 5.8 5.31l6.84-2.73M268.42-398.42c-.79-1.79-3.55-1.82-5.02-.52s-1.96 3.35-2.38 5.26c-.55 2.48-1.1 5.01-.9 7.54s1.25 5.12 3.34 6.58 5.28 1.4 6.93-.53c1.75-2.05 1.24-5.13.62-7.75l-1.95-8.31" class="st1"/></svg>