<?xml version="1.0" encoding="UTF-8"?>
<svg xmlns="http://www.w3.org/2000/svg" viewBox="0 0 512 512" width="512" height="512">
  <title>Thibaud Pagès</title>
  <g transform="matrix(0.456430,0,0,0.456430,-473.020905,-777.550791)">
    <g transform="matrix(1.787133,0,0,1.787133,-1501.608522,790.693656)">
      <circle cx="1914.966" cy="957.096" r="57.411" fill="#000000"/>
    </g>
    <g transform="matrix(1,0,0,1,884.771276,1522.399134)">
      <path d="M713.294,853.328C695.398,754.004 693.327,654.196 721.401,584.622C757.349,495.532 810.463,460.569 856.136,451.337C938.466,434.696 1015.407,499.621 1026.358,573.813C1036.324,641.327 1021.606,834.528 854.449,929.627C878.666,1019.461 908.619,1095.127 919.648,1117.49C934.407,1147.416 922.112,1183.64 892.186,1198.399C862.261,1213.158 826.037,1200.863 811.278,1170.937C799.387,1146.826 767.35,1067.13 740.685,971.317C678.162,982.356 631.708,968.573 596.93,945.692C558.001,920.081 532.785,880.687 517.885,841.623C499.191,792.609 496.965,745.639 496.774,740.473C496.774,740.473 485.377,516.706 481.055,431.839C480.021,411.548 488.29,391.89 503.518,378.439C510.836,371.975 519.216,364.573 527.77,357.017C538.762,347.308 554.308,344.669 567.888,350.207C581.468,355.746 590.735,368.504 591.801,383.131C600.841,507.096 617.521,735.85 617.521,735.85L617.533,736.272C617.533,736.272 618.625,766.679 630.785,798.562C637.228,815.453 646.51,833.673 663.342,844.746C676.01,853.081 692.358,856.052 713.294,853.328ZM827.107,801.418C905.297,734.722 912.627,630.798 906.82,591.457C905.112,579.883 894.688,568.584 882.018,569.507C875.528,569.98 869.39,574.202 862.991,580.617C852.041,591.595 842.317,607.876 833.455,629.837C815.219,675.032 817.405,737.181 827.107,801.418Z" fill="#000000"/>
      <path d="M408.9,802.563C393.412,832.118 356.898,843.521 327.343,828.033C297.788,812.545 286.384,776.031 301.872,746.476C301.872,746.476 506.638,357.596 906.094,277.452C938.809,270.888 970.651,292.088 977.215,324.803C983.779,357.519 962.579,389.36 929.864,395.924C584.731,465.17 408.9,802.563 408.9,802.563Z" fill="#000000"/>
    </g>
  </g>
</svg>
