<?xml version="1.0" encoding="UTF-8" standalone="no"?><!DOCTYPE svg PUBLIC "-//W3C//DTD SVG 1.1//EN" "http://www.w3.org/Graphics/SVG/1.1/DTD/svg11.dtd"><svg width="100%" height="100%" viewBox="0 0 134 134" version="1.1" xmlns="http://www.w3.org/2000/svg" xmlns:xlink="http://www.w3.org/1999/xlink" xml:space="preserve" xmlns:serif="http://www.serif.com/" style="fill-rule:evenodd;clip-rule:evenodd;stroke-linejoin:round;stroke-miterlimit:2;"><g><circle cx="111.517" cy="100.15" r="14.417"/><path d="M23.408,75.396l-0.004,0.004c-1.046,1.992 -2.838,3.487 -4.983,4.158c-2.146,0.671 -4.475,0.463 -6.467,-0.583c-0.004,0 -0.008,-0.004 -0.013,-0.004c-1.992,-1.046 -3.488,-2.838 -4.158,-4.983c-0.671,-2.146 -0.462,-4.475 0.583,-6.467c0,-0.004 0.004,-0.004 0.004,-0.004c0,0 28.775,-54.646 84.904,-65.908l0.004,0c2.204,-0.442 4.496,0.008 6.371,1.254c1.871,1.246 3.175,3.188 3.617,5.392c0,0.004 0,0.008 0.004,0.013c0.442,2.204 -0.008,4.496 -1.254,6.371c-1.246,1.871 -3.188,3.175 -5.392,3.617l-0.004,0c-48.496,9.729 -73.204,57.142 -73.204,57.142l-0.008,0Z"/><path d="M66.183,82.529c-2.517,-13.958 -2.804,-27.983 1.138,-37.758c5.05,-12.521 12.517,-17.433 18.933,-18.729c11.571,-2.337 22.379,6.783 23.921,17.208c1.4,9.488 -0.667,36.638 -24.158,50c3.404,12.625 7.612,23.254 9.162,26.4l0.004,0.004c0.996,2.017 1.15,4.35 0.425,6.479c-0.725,2.129 -2.263,3.887 -4.279,4.883c-0.004,0 -0.008,0.004 -0.013,0.004c-2.017,0.996 -4.35,1.15 -6.479,0.425c-2.129,-0.725 -3.888,-2.262 -4.883,-4.279c0,-0.004 -0.004,-0.004 -0.004,-0.004c-1.671,-3.388 -6.171,-14.588 -9.921,-28.05c-8.788,1.55 -15.313,-0.387 -20.2,-3.6c-5.471,-3.6 -9.013,-9.133 -11.108,-14.625c-2.625,-6.887 -2.942,-13.487 -2.967,-14.213c0,0 -1.208,-23.692 -1.921,-37.746c-0.325,-6.404 2.283,-12.608 7.092,-16.854c0,0 0.004,0 0.004,-0.004c1.392,-1.229 3.358,-1.562 5.075,-0.863c1.717,0.7 2.892,2.317 3.025,4.167c1.25,17.129 3.692,50.65 3.692,50.65l0,0.058c0,0 0.154,4.271 1.862,8.754c0.904,2.375 2.208,4.933 4.575,6.492c1.779,1.171 4.079,1.588 7.021,1.204l0.004,-0.004Zm15.992,-7.296c10.987,-9.371 12.017,-23.975 11.2,-29.504c-0.242,-1.625 -1.704,-3.213 -3.483,-3.083c-0.913,0.067 -1.775,0.658 -2.675,1.562c-1.537,1.542 -2.904,3.829 -4.15,6.917c-2.562,6.35 -2.254,15.083 -0.892,24.108Z"/></g></svg>