<?xml version="1.0" encoding="UTF-8" standalone="no"?><!DOCTYPE svg PUBLIC "-//W3C//DTD SVG 1.1//EN" "http://www.w3.org/Graphics/SVG/1.1/DTD/svg11.dtd"><svg width="100%" height="100%" viewBox="0 0 1200 630" version="1.1" xmlns="http://www.w3.org/2000/svg" xmlns:xlink="http://www.w3.org/1999/xlink" xml:space="preserve" xmlns:serif="http://www.serif.com/" style="fill-rule:evenodd;clip-rule:evenodd;stroke-linejoin:round;stroke-miterlimit:2;"><rect x="0" y="0" width="1200" height="630" style="fill:#fffdf0;"/><g><g><circle cx="724.959" cy="339.952" r="39.605" style="fill:#5d8d89;"/><path d="M600.423,291.537c-6.908,-38.34 -7.707,-76.867 3.129,-103.723c13.876,-34.39 34.379,-47.886 52.009,-51.449c31.78,-6.424 61.48,18.638 65.707,47.277c3.847,26.061 -1.834,100.639 -66.359,137.348c9.348,34.677 20.91,63.885 25.168,72.517c0,0 0,0 0.001,0.001c5.697,11.551 0.951,25.533 -10.6,31.23c-0.001,0 -0.002,0.001 -0.003,0.001c-11.551,5.697 -25.533,0.951 -31.23,-10.6c-0,-0.001 -0.001,-0.001 -0.001,-0.001c-4.59,-9.307 -16.956,-40.071 -27.25,-77.055c-24.135,4.261 -42.066,-1.059 -55.491,-9.891c-15.027,-9.886 -24.761,-25.093 -30.512,-40.172c-7.216,-18.92 -8.075,-37.051 -8.149,-39.045c0,0 -4.155,-81.578 -5.921,-116.243c-0.492,-9.661 3.445,-19.02 10.695,-25.424c0,-0 0.001,-0.001 0.001,-0.001c5.597,-4.944 13.513,-6.288 20.427,-3.467c6.915,2.82 11.633,9.316 12.176,16.764c3.583,49.138 9.23,126.586 9.23,126.586l0.005,0.163c-0,0 0.421,11.738 5.115,24.045c2.487,6.52 6.07,13.553 12.567,17.828c4.89,3.217 11.201,4.364 19.282,3.313Zm43.933,-20.038c30.182,-25.745 33.011,-65.861 30.77,-81.047c-0.659,-4.468 -4.683,-8.829 -9.574,-8.473c-2.505,0.182 -4.875,1.812 -7.345,4.289c-4.227,4.238 -7.98,10.522 -11.401,19c-7.039,17.446 -6.196,41.436 -2.45,66.232Z" style="fill:#1f5243;"/><path d="M482.924,271.941c0,0 -0,0 -0.001,0.001c-5.978,11.408 -20.072,15.809 -31.48,9.831c-0.001,-0 -0.002,-0.001 -0.003,-0.001c-11.408,-5.978 -15.809,-20.072 -9.831,-31.48c0,-0.001 0.001,-0.001 0.001,-0.001c0,0 79.042,-150.111 233.236,-181.048c0,0 0,-0 0.001,-0c12.628,-2.534 24.918,5.649 27.452,18.277c0,0.001 0,0.002 0.001,0.003c2.534,12.628 -5.649,24.918 -18.277,27.452c-0.001,0 -0.001,0 -0.001,0c-133.225,26.729 -201.097,156.967 -201.097,156.967Z" style="fill:#1f5243;"/></g><g transform="matrix(112.94699,0,0,112.94699,767.048598,524.327469)"></g><text x="433.855px" y="524.327px" style="font-family:'Helvetica-Compressed', 'Helvetica Compressed';font-weight:500;font-size:112.947px;fill:#1f5243;">THIBAUD</text><g transform="matrix(43.079854,0,0,43.079854,754.418559,560.397093)"></g><text x="444.109px" y="560.397px" style="font-family:'Helvetica-Light', 'Helvetica Light', sans-serif;font-size:43.08px;fill:#5d8d89;">P<tspan x="510.306px 582.12px 658.709px 728.104px " y="560.397px 560.397px 560.397px 560.397px ">AGES</tspan></text></g></svg>