<?xml version="1.0" encoding="UTF-8" standalone="no"?><!DOCTYPE svg PUBLIC "-//W3C//DTD SVG 1.1//EN" "http://www.w3.org/Graphics/SVG/1.1/DTD/svg11.dtd"><svg width="100%" height="100%" viewBox="0 0 1200 630" version="1.1" xmlns="http://www.w3.org/2000/svg" xmlns:xlink="http://www.w3.org/1999/xlink" xml:space="preserve" xmlns:serif="http://www.serif.com/" style="fill-rule:evenodd;clip-rule:evenodd;stroke-linejoin:round;stroke-miterlimit:2;"><rect x="0" y="0" width="1200" height="630" style="fill:#fffdf0;"/><g><g><circle cx="724.959" cy="339.952" r="39.605" style="fill:#5d8d89;"/><path d="M600.423,291.537c-6.908,-38.34 -7.707,-76.867 3.129,-103.723c13.876,-34.39 34.379,-47.886 52.009,-51.449c31.78,-6.424 61.48,18.638 65.707,47.277c3.847,26.061 -1.834,100.639 -66.359,137.348c9.348,34.677 20.91,63.885 25.168,72.517l0.001,0.001c5.697,11.551 0.951,25.533 -10.6,31.23c-0.001,0 -0.002,0.001 -0.003,0.001c-11.551,5.697 -25.533,0.951 -31.23,-10.6c0,-0.001 -0.001,-0.001 -0.001,-0.001c-4.59,-9.307 -16.956,-40.071 -27.25,-77.055c-24.135,4.261 -42.066,-1.059 -55.491,-9.891c-15.027,-9.886 -24.761,-25.093 -30.512,-40.172c-7.216,-18.92 -8.075,-37.051 -8.149,-39.045c0,0 -4.155,-81.578 -5.921,-116.243c-0.492,-9.661 3.445,-19.02 10.695,-25.424l0.001,-0.001c5.597,-4.944 13.513,-6.288 20.427,-3.467c6.915,2.82 11.633,9.316 12.176,16.764c3.583,49.138 9.23,126.586 9.23,126.586l0.005,0.163c0,0 0.421,11.738 5.115,24.045c2.487,6.52 6.07,13.553 12.567,17.828c4.89,3.217 11.201,4.364 19.282,3.313l0.004,-0.002Zm43.933,-20.038c30.182,-25.745 33.011,-65.861 30.77,-81.047c-0.659,-4.468 -4.683,-8.829 -9.574,-8.473c-2.505,0.182 -4.875,1.812 -7.345,4.289c-4.227,4.238 -7.98,10.522 -11.401,19c-7.039,17.446 -6.196,41.436 -2.45,66.232l0,-0.001Z" style="fill:#1f5243;"/><path d="M482.924,271.941l-0.001,0.001c-5.978,11.408 -20.072,15.809 -31.48,9.831c-0.001,0 -0.002,-0.001 -0.003,-0.001c-11.408,-5.978 -15.809,-20.072 -9.831,-31.48c0,-0.001 0.001,-0.001 0.001,-0.001c0,0 79.042,-150.111 233.236,-181.048l0.001,0c12.628,-2.534 24.918,5.649 27.452,18.277c0,0.001 0,0.002 0.001,0.003c2.534,12.628 -5.649,24.918 -18.277,27.452l-0.001,0c-133.225,26.729 -201.097,156.967 -201.097,156.967l-0.001,-0.001Z" style="fill:#1f5243;"/></g><g><path d="M448.538,456.107l0,68.22l18.749,0l0,-68.22l13.102,0l0,-12.198l-44.953,0l0,12.198l13.102,0Z" style="fill:#1f5243;fill-rule:nonzero;"/><path d="M503.204,524.327l0,-38.402l9.939,0l0,38.402l18.749,0l0,-80.418l-18.749,0l0,29.818l-9.939,0l0,-29.818l-18.749,0l0,80.418l18.749,0Z" style="fill:#1f5243;fill-rule:nonzero;"/><rect x="536.524" y="443.909" width="18.749" height="80.418" style="fill:#1f5243;fill-rule:nonzero;"/><path d="M578.653,488.071c7.906,0 9.939,0.113 9.939,11.521c0,8.358 0.113,14.118 -9.939,13.215l0,-24.735Zm-18.749,36.256l18.975,0c19.879,0 28.463,-0.791 28.463,-22.928c0,-10.391 -1.355,-19.201 -13.328,-19.201l0,-0.791c10.73,-1.017 13.328,-9.036 13.328,-17.959c0,-19.314 -12.537,-19.54 -28.463,-19.54l-18.975,0l0,80.418Zm18.749,-68.898c9.262,-0.565 9.939,2.711 9.939,10.617c0,12.085 -4.066,10.165 -9.939,10.504l0,-21.121Z" style="fill:#1f5243;fill-rule:nonzero;"/><path d="M631.964,492.363l3.275,-35.804l0.226,0l3.275,35.804l-6.777,0Zm-7.229,-48.454l-13.667,80.418l15.813,0l3.05,-19.766l10.165,0l2.146,19.766l18.636,0l-10.391,-80.418l-25.752,0Z" style="fill:#1f5243;fill-rule:nonzero;"/><path d="M712.156,443.909l-18.749,0l0,57.942c0,6.438 0,11.182 -5.083,11.182c-4.857,0 -4.857,-4.744 -4.857,-11.182l0,-57.942l-18.749,0l0,55.683c0,10.165 0.452,26.317 23.606,26.317c17.507,0 23.38,-7.455 23.832,-24.509l0,-57.49Z" style="fill:#1f5243;fill-rule:nonzero;"/><path d="M717.126,524.327l19.314,0c23.606,0 28.124,-9.036 28.124,-24.284l0,-28.689c0,-24.058 -7.116,-27.446 -28.124,-27.446l-19.314,0l0,80.418Zm18.749,-68.898c9.488,0 9.939,2.372 9.939,13.102l0,33.093c0,7.68 -0.791,11.182 -9.939,11.182l0,-57.377Z" style="fill:#1f5243;fill-rule:nonzero;"/></g><g><path d="M450.399,560.397l0,-13.696l6.626,0c3.015,0.056 5.729,-0.533 8.141,-1.767c2.44,-1.234 3.695,-3.534 3.765,-6.899c0.028,-2.412 -0.652,-4.452 -2.04,-6.121c-0.715,-0.771 -1.732,-1.402 -3.05,-1.893c-1.318,-0.421 -3.001,-0.631 -5.048,-0.631l-11.317,0l0,31.006l2.924,0Zm0,-16.174l0,-12.352l7.573,0c5.371,0.028 8.042,2.016 8.014,5.965c-0.028,2.557 -0.799,4.272 -2.314,5.143c-1.585,0.857 -3.772,1.272 -6.563,1.244l-6.71,0Z" style="fill:#5d8d89;"/><g><path d="M513.966,560.397l3.66,-9.741l14.136,0l3.576,9.741l3.008,0l-11.885,-31.006l-3.324,0l-12.179,31.006l3.008,0Zm10.728,-28.526l6.079,16.306l-12.158,0l6.079,-16.306Z" style="fill:#5d8d89;"/><path d="M609.255,546.869c0.028,2.333 -0.414,4.476 -1.325,6.429c-1.066,1.953 -2.447,3.352 -4.144,4.195c-1.725,0.829 -3.464,1.244 -5.217,1.244c-3.562,-0.056 -6.318,-1.347 -8.267,-3.874c-1.977,-2.47 -2.966,-5.46 -2.966,-8.969c-0.028,-4.464 0.89,-8.043 2.756,-10.738c1.865,-2.709 4.824,-4.077 8.877,-4.105c2.384,0 4.466,0.639 6.247,1.918c1.781,1.265 2.945,3.077 3.492,5.437l3.008,0c-0.687,-3.313 -2.181,-5.792 -4.48,-7.434c-2.328,-1.601 -5.161,-2.401 -8.498,-2.401c-4.852,0.056 -8.456,1.606 -10.812,4.649c-2.342,2.987 -3.513,6.822 -3.513,11.506c0.028,5.483 1.318,9.599 3.87,12.348c2.468,2.763 5.701,4.144 9.697,4.144c3.015,-0.028 5.455,-0.588 7.32,-1.679c1.809,-1.091 3.225,-2.567 4.249,-4.428l0,5.286l2.503,0l0,-16.006l-13.252,0l0,2.478l10.454,0Z" style="fill:#5d8d89;"/><path d="M683.257,560.397l0,-2.48l-18.132,0l0,-12.331l15.987,0l0,-2.478l-15.987,0l0,-11.237l17.712,0l0,-2.48l-20.635,0l0,31.006l21.056,0Z" style="fill:#5d8d89;"/><path d="M729.955,551.15c0.028,3.349 1.108,5.857 3.239,7.524c2.033,1.696 4.705,2.543 8.014,2.543c7.432,-0.084 11.205,-3.099 11.317,-9.046c0,-1.501 -0.245,-2.763 -0.736,-3.787c-0.477,-0.982 -1.136,-1.788 -1.977,-2.419c-0.827,-0.659 -1.774,-1.178 -2.84,-1.557c-1.066,-0.365 -2.188,-0.666 -3.366,-0.905c-1.15,-0.252 -2.272,-0.512 -3.366,-0.778c-1.108,-0.252 -2.125,-0.568 -3.05,-0.947c-0.912,-0.365 -1.683,-0.862 -2.314,-1.493c-0.673,-0.603 -1.094,-1.395 -1.262,-2.377c-0.252,-1.697 0.21,-3.247 1.388,-4.649c1.178,-1.402 3.246,-2.139 6.205,-2.209c2.061,0 3.835,0.52 5.322,1.56c1.501,1.124 2.265,2.867 2.293,5.228l2.798,0c0.028,-2.612 -0.82,-4.795 -2.545,-6.55c-1.753,-1.783 -4.375,-2.689 -7.867,-2.717c-3.45,0.056 -6.065,0.884 -7.846,2.484c-1.781,1.642 -2.671,3.586 -2.671,5.831c0,1.488 0.287,2.723 0.862,3.705c0.547,1.01 1.248,1.831 2.104,2.463c0.926,0.631 1.949,1.13 3.071,1.494c1.108,0.379 2.251,0.709 3.429,0.989c1.234,0.267 2.412,0.54 3.534,0.821c1.094,0.295 2.089,0.688 2.987,1.179c0.912,0.449 1.627,1.053 2.146,1.81c0.519,0.772 0.778,1.761 0.778,2.968c0,1.726 -0.603,3.207 -1.809,4.442c-1.262,1.291 -3.288,1.951 -6.079,1.979c-2.412,0.028 -4.424,-0.548 -6.037,-1.728c-1.627,-1.18 -2.587,-3.133 -2.882,-5.859l-2.84,0Z" style="fill:#5d8d89;"/></g></g></g></svg>