<?xml version="1.0" encoding="UTF-8" standalone="no"?><!DOCTYPE svg PUBLIC "-//W3C//DTD SVG 1.1//EN" "http://www.w3.org/Graphics/SVG/1.1/DTD/svg11.dtd"><svg width="2500px" height="2500px" version="1.1" xmlns="http://www.w3.org/2000/svg" xmlns:xlink="http://www.w3.org/1999/xlink" xml:space="preserve" xmlns:serif="http://www.serif.com/" style="fill-rule:evenodd;clip-rule:evenodd;stroke-linejoin:round;stroke-miterlimit:2;"><g id="_Image1_" serif:id="_Image1"><path d="M106.25,2500L139.583,2500C158.68,2379.925 154.965,2322.332 220.838,2225.842C233.094,2207.89 220.395,2196.096 309.973,2134.62C315.507,2130.822 315.492,2132.488 384.803,2096.686C392.818,2092.546 600.293,2028.083 635.37,2026.251C745.256,2020.511 825.432,1974.4 840.243,1965.882C879.927,1943.059 836.126,2017.406 941.217,2108.558C993.112,2153.57 1226.988,2327.868 1393.721,2317.833C1400.046,2317.452 1399.636,2320.536 1472.919,2318.789C1529.614,2317.438 1729.934,2264.999 1733.724,2193.624C1736.26,2145.882 1707.449,2119.455 1743.706,2127.274C2086.958,2201.299 2227.882,2236.95 2295.624,2384.461C2339.26,2479.48 2341.863,2479.146 2356.248,2500L2393.748,2500C2339.332,2417.388 2316.941,2273.082 2205.928,2240.572C2168.721,2229.676 2178.83,2206.172 2060.132,2174.435C1735.62,2087.669 1723.365,2093.609 1715.43,2060.195C1703.104,2008.289 1643.882,2000.392 1646.627,1956.183C1647.448,1942.959 1656.274,1800.837 1676.908,1793.354C1714.543,1779.705 1805.428,1853.49 1937.68,1700.411C1938.231,1699.773 2150.827,1341.073 2126.468,1064.662C2109.527,872.432 2027.924,873.195 2073.262,718.849C2099.074,630.978 1999.088,544.873 2018.259,534.904C2047.071,519.921 2232.199,410.911 2257.56,348.477C2297.246,250.778 2219.569,201.846 2213.842,199.348C1990.997,102.139 1781.018,146.173 1744.065,153.923C1672.476,168.936 1672.585,-6.959 1214.604,73.067C1160.374,82.543 1158.508,103.069 1114.061,77.97C1072.25,54.361 956.103,50.672 969.605,151.981C974.619,189.604 834.187,198.129 727.485,489.749C605.6,822.864 688.482,1010.981 671.709,1034.716C661.521,1049.132 608.674,1090.677 648.928,1210.173C653.087,1222.52 724.053,1391.638 910.379,1388.766C954.238,1388.09 933.918,1423.671 939.36,1477.104C941.555,1498.65 956.347,1643.886 942.339,1747.802C936.729,1789.421 950.864,1798.615 914.808,1819.206C833.306,1865.75 885.684,1901.453 858.686,1925.336C743.214,2027.483 330.28,2007.485 211.487,2186.18C190.081,2218.379 157.498,2242.174 106.247,2500.001L106.25,2500ZM727.134,1089.65C638.099,1194.442 833.984,1300.969 842.403,1272.538C849.844,1247.408 715.039,1207.312 733.806,1126.643C745.859,1074.833 828.245,1109.846 835.822,1113.066C843.844,1116.475 865.899,1103.006 843.424,1085.85C795.766,1049.47 735.167,1084.947 727.135,1089.649L727.134,1089.65ZM1381.25,697.928C1279.539,705.797 1275.212,691.452 1185.314,739.39C1127.12,770.422 1128.436,807.83 1152.105,797.972C1156.4,796.183 1176.329,771.97 1218.645,751.896C1223.697,749.5 1224.281,753.652 1285.44,731.328C1320.014,718.708 1452.677,734.134 1455.847,726.858C1458.795,720.091 1455.53,714.609 1453.88,713.14C1436.383,697.569 1434.249,704.206 1381.25,697.928ZM1847.917,589.599C1835.041,591.05 1719.155,604.113 1700.112,655.826C1696.769,664.904 1709.685,674.001 1718.134,667.701C1718.255,667.611 1762.346,615.508 1856.245,614.941C1949.301,614.38 2023.831,660.163 2004.322,623.877C1987.591,592.757 1860.723,589.888 1847.917,589.599Z" style="fill:rgb(10,9,8);fill-opacity:0.98;"/><path d="M975.281,825.531L980.9,831.254L981.474,835.421C965.315,921.786 1179.974,1241.695 1272.692,1339.588C1275.368,1342.413 1280.147,1343.795 1281.25,1347.527C1281.919,1349.791 1275.954,1350.626 1276.623,1352.89C1290.645,1360.767 1434.994,1441.854 1468.185,1413.879C1554.634,1341.019 1569.527,1357.675 1569.856,1347.988C1570.258,1336.13 1574.089,1223.202 1602.917,1203.413C1647.64,1172.712 1587.701,1273.82 1598.176,1335.383C1603.244,1365.164 1657.382,1393.135 1658.932,1339.484C1660.27,1293.162 1748.609,1296.759 1746.171,1327.187C1743.585,1359.459 1760.019,1352.291 1790.197,1341.458C1943.955,1286.264 1863.037,1218.455 1693.89,993.643C1584.277,847.956 1597.273,822.868 1572.794,731.28C1568.528,715.32 1597.769,703.305 1607.516,751.815C1646.414,945.417 1752.276,1008.229 1860.506,1164.524C1920.5,1251.161 1885.244,1289.707 1901.872,1298.283C2019.337,1358.868 2066.767,1155.204 2083.877,1109.819C2138.044,966.136 1992.344,879.927 2041.765,726.478C2074.429,625.061 1969.022,540.546 1968.647,540.521C1384.157,502.099 1040.12,774.24 975.278,825.531L975.281,825.531ZM1381.251,697.928C1279.54,705.797 1275.213,691.452 1185.315,739.39C1127.121,770.422 1128.437,807.83 1152.106,797.972C1156.401,796.183 1176.33,771.97 1218.646,751.896C1223.698,749.5 1224.282,753.652 1285.441,731.328C1320.015,718.708 1452.678,734.134 1455.848,726.858C1458.796,720.091 1455.531,714.609 1453.881,713.14C1436.384,697.569 1434.25,704.206 1381.251,697.928ZM1847.918,589.599C1835.042,591.05 1719.156,604.113 1700.113,655.826C1696.77,664.904 1709.686,674.001 1718.135,667.701C1718.256,667.611 1762.347,615.508 1856.246,614.941C1949.302,614.38 2023.832,660.163 2004.323,623.877C1987.592,592.757 1860.724,589.888 1847.918,589.599Z" style="fill:rgb(236,201,179);"/><path d="M139.583,2500L2356.25,2500C2341.865,2479.146 2339.262,2479.48 2295.626,2384.461C2227.883,2236.95 2086.96,2201.299 1743.708,2127.274C1707.451,2119.455 1736.262,2145.883 1733.726,2193.624C1729.935,2264.999 1529.616,2317.438 1472.921,2318.789C1399.638,2320.536 1400.048,2317.452 1393.723,2317.833C1226.99,2327.868 993.114,2153.57 941.219,2108.558C836.129,2017.406 879.929,1943.058 840.245,1965.882C825.433,1974.401 745.258,2020.511 635.372,2026.251C600.295,2028.083 392.82,2092.546 384.805,2096.686C315.493,2132.488 315.508,2130.822 309.975,2134.62C220.397,2196.095 233.096,2207.89 220.84,2225.842C154.966,2322.332 158.681,2379.925 139.585,2500L139.583,2500Z" style="fill:rgb(128,128,127);"/><path d="M2102.157,1140.988L2098.285,1140.017C2086.621,1161.082 2078.924,1230.691 2046.343,1271.686C1965.034,1373.994 1897.795,1323.054 1881.235,1322.547C1845.842,1321.464 1858.758,1386.293 1697.901,1368.999C1672.222,1366.238 1679.53,1394.909 1627.083,1393.793C1591.474,1393.035 1581.6,1356.826 1499.275,1420.368C1474.758,1439.292 1465.836,1483.152 1290.126,1392.469C1052.207,1269.681 987.414,1124.226 990.183,1093.77C993.168,1060.937 989.932,1061.82 976.539,1031.511C923.011,910.383 934.533,906.695 925.087,878.058C921.877,868.327 913.689,871.638 826.709,960.08C801.707,985.502 839.576,985.4 843.22,986.681C908.906,1009.763 1007.443,1314.548 1011.548,1339.554C1016.843,1371.806 951.755,1383.135 965.526,1405.726C1006.468,1472.89 1009.236,1485.731 1094.517,1567.976C1235.172,1703.623 1493.138,1763.136 1631.259,1764.11C1756.9,1764.997 1787.448,1787.752 1835.369,1747.729C1840.292,1745.058 1846.201,1744.559 1851.124,1741.888C2004.338,1658.767 2103.931,1178.215 2107.492,1143.174C2107.934,1138.824 2106.523,1139.168 2102.157,1140.986L2102.157,1140.988Z" style="fill:rgb(45,36,0);"/><path d="M971.512,727.021C977.768,740.47 984.025,753.92 990.281,767.369L993.743,772.677C997.918,771.967 1225.428,591.814 1614.473,526.553C1756.114,502.793 1966.947,513.037 1985.63,517.477C1993.492,519.346 2154.738,437.059 2229.435,346.571C2248.895,322.997 2249.549,241.992 2198.428,221.591C1810.166,66.652 1465.334,266.55 1288.625,375.466C1126.37,475.474 970.906,704.416 971.511,727.022L971.512,727.021Z" style="fill:rgb(39,38,33);"/><path d="M1055.297,154.556L1047.17,177.087C991.531,260.686 923.025,608.706 970.195,669.827C1108.694,476.632 1172.502,429.642 1199.595,408.335C1423.516,232.238 1663.294,171.971 1673.328,170.068C1700.737,164.87 1678.173,154.38 1651.196,136.87C1636.471,127.313 1560.412,77.946 1439.582,78.802C1184.576,80.61 1060.775,152.201 1055.297,154.555L1055.297,154.556Z" style="fill:rgb(237,228,180);"/><path d="M1248.18,1701.351L1244.401,1706.254C1234.737,1940.752 1291.793,2073.688 1288.781,2124.397C1310.167,2132.077 1441.163,2179.116 1572.761,2118.428C1650.762,2082.457 1619.468,2059.199 1619.283,1993.733C1618.821,1829.404 1656.961,1792.482 1630.968,1791.488C1599.53,1790.286 1418.794,1783.376 1248.18,1701.35L1248.18,1701.351Z" style="fill:rgb(237,202,180);"/><path d="M1248.18,1701.351C981.661,1573.753 960.93,1392.421 969.777,1497.947C985.646,1687.223 969.027,1686.356 956.588,1847.965C953.644,1886.208 934.546,1881.754 931.305,1880.999C930.154,1879.259 929.003,1877.519 927.852,1875.78C925.861,1870.802 931.011,1866.486 918.367,1864.072C912.39,1902.75 965.191,1969.477 1020.144,2004.236C1127.021,2071.836 1261.058,2112.488 1291.382,2125.463C1293.813,2089.503 1239.421,1923.838 1248.18,1701.353L1248.18,1701.351Z" style="fill:rgb(230,180,152);"/><path d="M893.75,1879.702C892.283,1881.552 890.815,1883.402 889.348,1885.252C886.689,1970.258 886.54,1970.227 886.831,1972.713C889.662,1996.936 902.293,2032.618 907.197,2038.947C998.513,2156.785 1201.921,2245.376 1230.562,2257.85C1473.84,2363.806 1719.067,2238.937 1711.51,2176.966C1693.66,2030.586 1675.269,2030.817 1664.191,2035.297C1662.797,2150.198 1458.498,2218.071 1272.5,2144.744C1243.369,2133.26 1064.216,2082.067 953.283,1984.162C901.043,1938.058 902.632,1882.929 893.75,1879.701L893.75,1879.702Z" style="fill:rgb(140,140,139);"/><path d="M951.989,210.002C917.614,241.105 882.073,249.98 804.162,386.659C688.151,590.177 676.126,889.911 696.115,989.973C702.308,1020.972 712.779,1012.85 743.549,1009.129C753.551,1007.92 749.67,1002.974 829.354,916.952C833.489,912.489 893.16,799.796 891.128,776.865C884.278,699.567 878.631,700.96 874.086,622.834C863.143,434.726 931.137,262.489 958.732,218.115C956.033,205.835 952.153,210.135 951.988,210.002L951.989,210.002Z" style="fill:rgb(227,214,150);"/><path d="M955.373,1256.427C948.785,1239.08 874.816,1044.296 860.343,1044.835C817.928,1046.414 819.525,1036.387 777.112,1036.368C526.125,1036.252 721.562,1413.509 947.692,1355.351C1009.044,1339.572 980.028,1315.294 955.373,1256.427ZM727.134,1089.65C638.099,1194.442 833.984,1300.969 842.403,1272.538C849.844,1247.408 715.039,1207.312 733.806,1126.643C745.859,1074.833 828.245,1109.846 835.822,1113.066C843.844,1116.475 865.899,1103.006 843.424,1085.85C795.766,1049.47 735.167,1084.947 727.135,1089.649L727.134,1089.65Z" style="fill:rgb(224,175,148);"/><path d="M1669.163,1457.824C1665.265,1458.097 1573.101,1433.051 1576.146,1497.996C1577.299,1522.584 1669.334,1619.123 1827.984,1533.082C1836.463,1528.483 1982.327,1464.017 1934.378,1419.927C1908.642,1396.262 1868.265,1423.569 1843.608,1419.853C1811.717,1415.046 1811.217,1411.672 1781.424,1423.39C1759.144,1432.153 1753.41,1412.937 1669.161,1457.824L1669.163,1457.824Z" style="fill:rgb(20,17,7);fill-opacity:0.96;"/><path d="M986.914,816.357C964.312,833.509 954.776,843.021 953.015,844.567C928.001,866.531 1025.341,1061.98 1023.106,1077.117C1008.595,1175.4 1210.853,1320.37 1299.039,1364.807C1298.37,1362.543 1276.029,1340.805 1273.353,1337.98C1180.635,1240.088 967.3,920.556 983.459,834.192C983.777,832.49 985.06,825.391 985.06,825.391L986.913,816.358L986.914,816.357Z" style="fill:rgb(226,177,150);"/><path d="M1055.297,154.556C1028.033,167.838 1030.01,169.53 1007.145,190.479C995.958,200.729 943.466,304.946 923.982,402.342C896.361,540.42 903.76,540.953 905.406,606.308C906.776,660.723 909.148,659.995 911.664,714.423C914.295,771.337 937.482,713.087 971.504,668.05C924.334,606.928 1020.348,227.988 1075.987,144.388L1055.297,154.556Z" style="fill:rgb(225,212,149);"/><path d="M1924.723,832.857L1928.928,827.15L1956.646,815.577C1992.966,766.294 1990.913,762.133 1949.174,721.967C1941.646,714.723 1933.065,713.229 1924.522,708.996C1903.509,722.907 1861.774,706.626 1842.711,721.364C1830.203,731.034 1882.582,759.898 1857.543,820.594C1856.749,822.518 1840.878,860.99 1873.357,841.242C1899.585,825.295 1903.303,809.636 1924.724,832.857L1924.723,832.857Z" style="fill:rgb(230,207,193);"/><path d="M1256.021,948.988C1272.643,935.596 1307.569,947.138 1310.151,940.241C1319.949,914.07 1277.552,901.657 1276.274,831.28C1275.741,801.911 1221.034,857.263 1208.12,875.497C1187.318,904.868 1191.238,921.381 1232.133,945.161C1251.977,949.671 1256.02,948.989 1256.02,948.989L1256.021,948.988Z" style="fill:rgb(230,210,197);"/><path d="M1438.186,838.219C1456.072,781.001 1178.826,800.21 1192.788,877.361C1199.781,916.004 1264.692,807.142 1255.234,864.494C1249.931,896.654 1264.845,923.195 1267.367,927.683C1280.764,951.525 1246.233,923.93 1229.157,944.474C1240.361,992.584 1442.633,962.428 1440.14,905.927C1421.555,885.562 1382.473,943.806 1385.446,914.582C1392.572,844.555 1340.118,853.884 1352.968,829.069C1356.354,822.529 1420.085,849.532 1438.185,838.219L1438.186,838.219Z" style="fill:rgb(20,18,16);fill-opacity:0.97;"/><path d="M1754.897,748.57C1769.232,764.076 1771.72,753.62 1789.272,742.971C1811.007,729.784 1800.386,755.474 1799.855,756.759C1783.099,797.29 1804.744,813.737 1809.781,823.021C1823.487,848.282 1762.334,798.09 1755.032,831.28C1774.059,879.508 1993.054,857.998 1972.591,810.792C1957.137,804.496 1957.341,810.119 1931.277,819.032C1908.248,826.907 1923.074,809.261 1928.176,785.621C1935.492,751.721 1877.805,710.705 1914.591,722.829C1918.032,723.963 1955.088,736.176 1959.743,726.413C1980.816,682.216 1758.591,687.541 1754.896,748.57L1754.897,748.57Z" style="fill:rgb(19,17,13);fill-opacity:0.97;"/><path d="M1880.142,1442.157C1824.697,1445.322 1825.366,1437.495 1810.609,1441.165C1750.83,1456.033 1748.671,1446.544 1694.294,1473.89C1669.346,1486.436 1583.894,1467.512 1603.633,1501.29C1641.884,1566.745 1808.233,1546.066 1909.627,1455.514C1915.103,1450.624 1916.312,1441.872 1912.025,1437.863C1908.145,1434.234 1882.619,1441.456 1880.143,1442.157L1880.142,1442.157Z" style="fill:rgb(196,167,150);fill-opacity:0.99;"/><path d="M727.134,1089.65C638.099,1194.442 833.984,1300.969 842.403,1272.538C849.844,1247.408 715.039,1207.312 733.806,1126.643C745.859,1074.833 828.245,1109.846 835.822,1113.066C843.844,1116.475 865.899,1103.006 843.424,1085.85C795.766,1049.47 735.167,1084.947 727.135,1089.649L727.134,1089.65Z" style="fill:rgb(19,16,13);fill-opacity:0.93;"/><path d="M1479.883,952.07C1478.223,939.924 1479.561,939.765 1476.173,936.283C1471.776,931.763 1461.835,924.907 1420.997,992.582C1390.007,1043.938 1325.886,1067.526 1330.754,1085.568C1346.898,1145.407 1455.547,1068.919 1479.883,952.07Z" style="fill:rgb(233,182,154);"/><path d="M1381.25,697.928C1279.539,705.797 1275.212,691.452 1185.314,739.39C1127.12,770.422 1128.436,807.83 1152.105,797.972C1156.4,796.183 1176.329,771.97 1218.645,751.896C1223.697,749.5 1224.281,753.652 1285.44,731.328C1320.014,718.708 1452.677,734.134 1455.847,726.858C1458.795,720.091 1455.53,714.609 1453.88,713.14C1436.383,697.569 1434.249,704.206 1381.25,697.928Z" style="fill:rgb(23,20,18);fill-opacity:0.93;"/><path d="M1847.918,589.599C1835.042,591.05 1719.156,604.113 1700.113,655.826C1696.77,664.904 1709.686,674.001 1718.135,667.701C1718.256,667.611 1762.347,615.508 1856.246,614.941C1949.302,614.38 2023.832,660.163 2004.323,623.877C1987.592,592.757 1860.724,589.888 1847.918,589.599Z" style="fill:rgb(22,19,17);fill-opacity:0.93;"/><path d="M1882.326,1451.537C1663.369,1500.34 1658.437,1485.141 1643.943,1498.082C1590.787,1545.543 1899.868,1494.686 1882.326,1451.537Z" style="fill:rgb(29,25,22);"/><path d="M1819.619,777.193C1825.935,871.92 1945.243,814.811 1892.6,753.029C1846.937,699.438 1821.657,771.391 1819.619,777.193ZM1854.487,766.901L1861.782,772.92L1860.417,776.314C1881.54,792.767 1885.509,776.947 1887.741,774.936C1880.666,769.794 1872.91,756.6 1854.488,766.901L1854.487,766.901Z" style="fill:rgb(51,42,0);fill-opacity:0.99;"/><path d="M1297.548,851.134C1235.207,885.941 1324.496,970.995 1355.439,922.468C1373.938,893.458 1352.82,837.829 1297.548,851.134ZM1309.9,876.364C1304.422,884.341 1295.649,890.928 1313.652,911.912C1322.231,903.143 1322.105,903.123 1322.917,902.442C1325.682,900.123 1326.027,901.311 1326.099,901.042C1330.647,883.831 1321.035,887.003 1318.751,880.67L1314.584,880.716L1309.9,876.363L1309.9,876.364Z" style="fill:rgb(50,41,0);fill-opacity:0.99;"/><path d="M1438.186,838.219C1420.085,849.533 1356.355,822.53 1352.969,829.069C1340.119,853.884 1392.573,844.555 1385.447,914.582C1382.473,943.805 1421.556,885.562 1440.141,905.927C1464.298,879.247 1481.518,869.413 1443.75,840.926L1438.186,838.219Z" style="fill:rgb(230,210,197);"/><path d="M1852.533,967.579C1897.106,978.413 1886.652,954.909 1884.351,953.333C1821.323,910.181 1816.022,920.137 1754.949,874.657C1728.124,854.68 1715.902,872.354 1728.65,888.423C1751.771,917.568 1767.789,932.609 1852.533,967.579Z" style="fill:rgb(233,182,155);"/><path d="M1754.897,748.57L1752.083,752.381L1747.828,756.254C1717.782,787.8 1710.741,797.675 1743.75,825.702C1749.074,830.222 1749.315,828.453 1755.032,831.28C1762.334,798.091 1823.486,848.282 1809.781,823.021C1804.744,813.737 1783.099,797.29 1799.855,756.759C1800.386,755.474 1811.007,729.784 1789.272,742.971C1771.72,753.62 1769.232,764.076 1754.897,748.57Z" style="fill:rgb(230,207,193);"/><path d="M971.512,727.021C943.088,747.854 947.739,751.182 892.084,847.733C891.555,848.65 866.763,891.661 897.626,859.748C904.839,852.29 929.248,827.051 993.743,772.677C992.589,770.908 991.435,769.138 990.281,767.369C984.025,753.92 977.768,740.47 971.512,727.021Z" style="fill:rgb(18,18,16);"/><path d="M1086.089,112.376C1120.265,91.956 1051.36,91.911 1047.893,91.909C987.87,91.87 985.219,156.322 1005.975,146.794C1045.998,128.421 1044.938,127.875 1086.089,112.377L1086.089,112.376Z" style="fill:rgb(20,19,17);"/><path d="M1854.487,766.902C1828.734,805.309 1886.106,827.518 1891.809,782.701C1891.898,782.005 1891.809,782.701 1887.74,774.937C1885.508,776.948 1881.539,792.768 1860.416,776.315L1861.781,772.921L1854.486,766.902L1854.487,766.902Z" style="fill:rgb(15,12,0);fill-opacity:0.98;"/><path d="M1309.9,876.364L1314.584,880.717L1318.751,880.671C1321.035,887.004 1330.647,883.832 1326.099,901.043C1326.028,901.312 1325.682,900.125 1322.917,902.443C1322.105,903.124 1322.231,903.144 1313.652,911.913C1369.588,929.444 1353.114,867.738 1322.83,871.733C1321.741,871.877 1321.872,872.076 1309.9,876.364Z" style="fill:rgb(14,11,0);fill-opacity:0.98;"/><path d="M1309.9,876.364C1304.422,884.341 1295.649,890.928 1313.652,911.912C1322.231,903.143 1322.105,903.123 1322.917,902.442C1325.682,900.123 1326.027,901.311 1326.099,901.042C1330.647,883.831 1321.035,887.003 1318.751,880.67L1314.584,880.716L1309.9,876.363L1309.9,876.364Z" style="fill:rgb(6,4,0);fill-opacity:0.94;"/><path d="M1854.487,766.902L1861.782,772.921L1860.417,776.315C1881.54,792.768 1885.509,776.948 1887.741,774.937C1880.666,769.795 1872.91,756.601 1854.488,766.902L1854.487,766.902Z" style="fill:rgb(8,7,0);fill-opacity:0.95;"/><path d="M821.61,1003.925C809.229,1000.896 809.657,1001.459 797.85,998.112C770.195,990.274 803.495,1026.828 821.419,1009.267L821.61,1003.925Z" style="fill:rgb(39,31,27);"/><path d="M821.61,1003.925L821.419,1009.267C833.918,1018.659 832.332,1022.401 843.291,1021.213C845.497,1020.974 852.656,1010.616 821.609,1003.924L821.61,1003.925Z" style="fill:rgb(9,7,6);"/><path d="M951.989,210.002C952.154,210.136 956.034,205.835 958.733,218.115C961.764,210.425 960.407,207.19 951.989,210.002Z" style="fill:rgb(56,54,40);"/><path d="M893.75,1879.702C892.283,1881.552 890.815,1883.402 889.348,1885.252C890.815,1883.402 892.283,1881.552 893.75,1879.702Z" style="fill:rgb(31,31,30);"/></g></svg>