<svg xmlns="http://www.w3.org/2000/svg" id="Calque_1" viewBox="0 0 250 250"><defs><style>.st0{fill:#fff}.st1{fill:#fbdfa6}.st3{fill:#9b4919}.st6{fill:#1d1d1b}.st7{fill:#1b1c1b}</style></defs><path d="m204 60-3-1c-24 0-37 0-52 2-20 3-32 5-44 13a275 275 0 0 0-49 42 97 97 0 0 1 3-44 102 102 0 0 1 53-58q7-2 18-1 18-1 38 9a78 78 0 0 1 36 38" class="st3"/><path d="M55 119v-3a98 98 0 0 1 3-45 103 103 0 0 1 53-58h1a100 100 0 0 1 57 8 79 79 0 0 1 37 38v2h-5c-24-1-37-1-52 1q-28 3-43 13a276 276 0 0 0-49 42zm57-104-5 3a101 101 0 0 0-50 66v3q-2 14 0 27a302 302 0 0 1 47-41q17-10 45-13c15-2 28-2 52-2h2l-6-9c-10-16-24-23-29-26q-17-9-38-9z" class="st7"/><path d="m204 62-1-1 2-1 1 2z" class="st6"/><path d="M112 14a106 106 0 0 0-56 70v3q-2 18 0 30l-1 1-14 8h-1l-9-3c-2-10-5-33 3-53 17-42 62-53 71-55h1z" class="st3"/><path d="m40 127-9-3h-1c-2-9-5-33 3-54 17-43 63-54 72-56h1l6-1h5l-4 2c-15 7-42 25-53 57l-3 15q-3 15 0 30v1h-1v1h-1l-14 8zm-8-5q5 1 8 3l13-8h1l1-1a98 98 0 0 1 3-44c10-29 32-47 48-56h-1c-9 2-54 13-70 55-8 20-5 42-3 51" class="st7"/><path d="M48 172v1a33 33 0 0 1-17 2l1-4 3-1 1-1v-5q-4 0-7 2-3 3-4 8l-2-2q-16-9-15-27c0-2 0-12 9-18q6-4 14-4l10 3 2 8 3 15z" class="st1"/><path d="m35 177-4-1h-1v-1l1-5 4-1v-4l-6 2q-2 3-3 7v1h-1l-3-2q-15-9-16-28 3-15 10-19 8-4 15-4l11 3v1l2 8 3 15 2 23-1 2zm-3-3 15-2-2-23h-1q0-4-2-15l-2-7-9-3q-8 0-13 4-9 5-9 17 0 18 14 26l1 1q1-4 4-6 5-4 8-3l1 2v4l-2 2-2 1zm3-9" class="st7"/><path d="m49 174-1-2v-1zM41 128zv-2l1 1z" class="st6"/><path d="M221 149q-7-16-9-29l-1-18v-3l-18-5q-30-4-55 0-24 1-65 16a42 42 0 0 0-11 39q1 8 10 21 7 6 15 11c8 4 17 6 36 11h3q4-2 6-7l8-10q8-5 12-5 5-3 17 2l9 6 3 3h8q11-4 14-7a74 74 0 0 0 20-19z" style="fill:#fbdfa6;stroke:#1b1c1b;stroke-miterlimit:10;stroke-width:4px"/><path d="M211 98h-3v-1z" class="st6"/><path d="M242 80c-3 9-20 16-29 19l-3-1-17-4q-30-4-55 0a240 240 0 0 0-82 23l2-2 17-17 30-24c12-8 24-9 44-12 15-2 28-2 52-2h3l28 5q7 2 10 6z" class="st3"/><path d="m53 120 2-3 1-2v-1h1l15-15 2-2 30-24c12-8 25-9 45-12 15-3 27-2 52-2s1 0 3 0l29 5q6 1 10 7 1 7 0 9c-3 10-21 17-30 20h-3l-1-1-16-3q-30-4-55 0-23 0-64 15l-3 1-15 6zm129-59q-18-1-33 2-28 3-43 12L75 99l-2 2-14 13 14-5q42-15 65-16a174 174 0 0 1 72 4l1 1h2c8-3 25-10 28-19v-7q-4-4-9-6l-4-1q-16-3-24-4h-22" class="st7"/><path d="m228 170-5-15a68 68 0 0 1-20 19q-3 3-14 7h-8l-3-3-9-6q-12-5-17-2-4 0-12 5l-8 10q-2 5-6 7h-3c-19-5-28-7-36-11l-15-11a45 45 0 0 1-9-44q4-10 10-16l-2 1-15 6-1 1-14 8 2 8 3 15 4 38c1 5 5 22 19 37 19 20 45 22 54 22h17a187 187 0 0 0 53-9c20-8 28-27 30-32q9-21 5-35Zm-55 24c-2 6-10 7-13 8-7 1-17-1-19-7-2-5 2-10 3-10q5-6 12-6 6-1 11 2 8 4 6 13Z" style="stroke:#1b1c1b;stroke-miterlimit:10;stroke-width:4px;fill:#1b1c1b"/><path d="M173 194c-2 6-10 7-13 8-7 1-17-1-19-7-2-5 2-10 3-10q5-6 12-6 6-1 11 2 8 4 6 13" class="st1"/><path d="M156 203c-7 0-15-2-16-8-2-5 2-10 3-11q6-6 13-6 7-1 12 2 8 4 6 14c-2 7-11 8-14 9zm3-23h-3q-5 0-11 6-3 2-3 9c1 5 11 6 18 5 3 0 11-1 12-7q1-7-5-11-4-3-8-2" class="st1"/><path d="M109 161h-2c-10 1-19-7-19-17a18 18 0 0 1 19-20q-8 5-8 18 1 15 10 19" class="st0"/><path d="M106 163c-10 0-19-8-19-19q-1-8 4-14a19 19 0 0 1 16-7l1 1v1q-8 6-8 17 1 14 9 18a1 1 0 0 1 0 2l-2 1zm-2-38q-6 2-11 6a18 18 0 0 0 12 29q-6-5-7-18 0-10 6-17" class="st0"/><path d="M109 161q-10-4-10-19 0-13 8-18 15 2 17 18c1 9-6 18-15 19" class="st7"/><path d="M109 162zq-10-4-10-20 0-13 9-19 16 3 18 18 0 18-16 21m-1-37q-8 6-8 17 1 13 9 18 15-4 14-18-2-14-15-17" class="st7"/><path d="M195 152h-2q-17 2-21-16a18 18 0 0 1 18-21q-6 7-7 19 2 14 12 18" class="st0"/><path d="M190 154q-6 0-11-4-6-6-8-13-1-9 4-15a19 19 0 0 1 15-8l1 1v1q-7 5-6 18t10 17a1 1 0 0 1 0 2zm-3-37q-6 1-10 6-4 6-4 13 1 8 7 12 5 4 11 3-8-5-9-17 0-11 5-17" class="st0"/><path d="M195 152q-10-4-12-18 1-12 7-19 15 1 18 16 2 17-13 21" class="st7"/><path d="M195 153zq-10-4-12-19 0-13 8-20 16 1 19 17c2 10-4 20-14 22m-4-37q-7 7-6 18 1 13 10 17 13-5 12-20-3-13-16-15" class="st7"/><path d="M42 175zq-1 7-7 9-7 1-10-6l-1-4q0-5 4-8 3-2 7-2v5l-1 1-3 1-1 4 1 2h4l2-2z" style="fill:#a8a8a8"/><path d="M35 186q-7-1-10-7l-1-5q1-6 4-8 5-4 8-3l1 2v4l-2 2-2 1-1 3 1 1h3l1-1v-1h6l1 2q0 7-8 9zm0-21-6 2q-2 3-3 7l1 4q3 6 9 5 5-1 6-7l-4 1-1 1h-5q-2-1-2-3l1-5 4-1zM38 157h-1q-1-5-7-11l-10-5-1-1 1-1a24 24 0 0 1 19 17z" class="st7"/><path d="m25 161-1-1 1-7q2-7 5-9h1v2q-2 1-4 8l-1 6zM81 127h-1q-2-2-1-3 4-8 10-12a31 31 0 0 1 35 1 2 2 0 1 1-3 4q-4-3-12-5-5-1-17 4-7 5-9 10zM207 114l-2-1a25 25 0 0 0-23-7q-10 3-13 7h-3v-3q3-5 15-9a29 29 0 0 1 27 9 2 2 0 0 1-1 4M150 158h-1l-1-1 1-1q8-1 9-6 0-5-2-5v-2h1q3 1 3 8-1 7-10 7M157 196l-5-1q-5-2-5-5v-1h2l4 4q2 2 8 0 4-3 4-5a1 1 0 1 1 2 0q1 3-5 7z" class="st7"/><path d="m128 12-18 2-6 1q0-3 2-6 5-5 8-5 2-1 9 2 5 4 5 6" class="st3"/><path d="M103 16v-1q0-4 2-7 3-4 9-5 2 0 9 2 5 4 6 7l1 2h-2l-24 2zm13-10h-2q-3-1-7 3l-2 4 21-2-4-4z" class="st7"/></svg>