<?xml version="1.0" encoding="UTF-8" standalone="no"?><!DOCTYPE svg PUBLIC "-//W3C//DTD SVG 1.1//EN" "http://www.w3.org/Graphics/SVG/1.1/DTD/svg11.dtd"><svg width="100%" height="100%" viewBox="0 0 32 32" version="1.1" xmlns="http://www.w3.org/2000/svg" xmlns:xlink="http://www.w3.org/1999/xlink" xml:space="preserve" xmlns:serif="http://www.serif.com/" style="fill-rule:evenodd;clip-rule:evenodd;stroke-linejoin:round;stroke-miterlimit:2;"><g><circle cx="26.764" cy="24.036" r="3.46" style="fill:#1f5243;"/><path d="M5.618,18.095c0,0 -0,0 -0.001,0.001c-0.251,0.478 -0.681,0.837 -1.196,0.998c-0.515,0.161 -1.074,0.111 -1.552,-0.14c-0.001,-0 -0.002,-0.001 -0.003,-0.001c-0.478,-0.251 -0.837,-0.681 -0.998,-1.196c-0.161,-0.515 -0.111,-1.074 0.14,-1.552c0,-0.001 0.001,-0.001 0.001,-0.001c0,0 6.906,-13.115 20.377,-15.818c-0,-0 0.001,-0 0.001,-0c0.529,-0.106 1.079,0.002 1.529,0.301c0.449,0.299 0.762,0.765 0.868,1.294c0,0.001 0,0.002 0.001,0.003c0.106,0.529 -0.002,1.079 -0.301,1.529c-0.299,0.449 -0.765,0.762 -1.294,0.868c-0.001,0 -0.001,0 -0.001,0c-11.639,2.335 -17.569,13.714 -17.569,13.714Z" style="fill:#1f5243;"/><path d="M15.884,19.807c-0.604,-3.35 -0.673,-6.716 0.273,-9.062c1.212,-3.005 3.004,-4.184 4.544,-4.495c2.777,-0.561 5.371,1.628 5.741,4.13c0.336,2.277 -0.16,8.793 -5.798,12c0.817,3.03 1.827,5.581 2.199,6.336c0,-0 0,0 0.001,0.001c0.239,0.484 0.276,1.044 0.102,1.555c-0.174,0.511 -0.543,0.933 -1.027,1.172c-0.001,0 -0.002,0.001 -0.003,0.001c-0.484,0.239 -1.044,0.276 -1.555,0.102c-0.511,-0.174 -0.933,-0.543 -1.172,-1.027c-0,-0.001 -0.001,-0.001 -0.001,-0.001c-0.401,-0.813 -1.481,-3.501 -2.381,-6.732c-2.109,0.372 -3.675,-0.093 -4.848,-0.864c-1.313,-0.864 -2.163,-2.192 -2.666,-3.51c-0.63,-1.653 -0.706,-3.237 -0.712,-3.411c0,0 -0.29,-5.686 -0.461,-9.059c-0.078,-1.537 0.548,-3.026 1.702,-4.045c0,-0 0.001,-0 0.001,-0.001c0.334,-0.295 0.806,-0.375 1.218,-0.207c0.412,0.168 0.694,0.556 0.726,1c0.3,4.111 0.886,12.156 0.886,12.156l0,0.014c-0,0 0.037,1.025 0.447,2.101c0.217,0.57 0.53,1.184 1.098,1.558c0.427,0.281 0.979,0.381 1.685,0.289Zm3.838,-1.751c2.637,-2.249 2.884,-5.754 2.688,-7.081c-0.058,-0.39 -0.409,-0.771 -0.836,-0.74c-0.219,0.016 -0.426,0.158 -0.642,0.375c-0.369,0.37 -0.697,0.919 -0.996,1.66c-0.615,1.524 -0.541,3.62 -0.214,5.786Z" style="fill:#1f5243;"/></g></svg>