<?xml version="1.0" encoding="UTF-8" standalone="no"?><!DOCTYPE svg PUBLIC "-//W3C//DTD SVG 1.1//EN" "http://www.w3.org/Graphics/SVG/1.1/DTD/svg11.dtd"><svg width="100%" height="100%" viewBox="0 0 1000 1000" version="1.1" xmlns="http://www.w3.org/2000/svg" xmlns:xlink="http://www.w3.org/1999/xlink" xml:space="preserve" xmlns:serif="http://www.serif.com/" style="fill-rule:evenodd;clip-rule:evenodd;stroke-linejoin:round;stroke-miterlimit:2;"><g><path d="M450.225,19.386c110.494,-6.788 268.001,25.45 356.395,94.204c155.229,120.734 176.853,286.182 159.043,472.504c-8.821,92.269 -27.67,154.667 -87.982,225.67c-115.046,135.431 -339.123,214.005 -507.969,143.136c-159.691,-67.031 -296.621,-197.071 -306.547,-379.42c-7.452,-136.889 0.11,-276.407 93.369,-384.66c72.695,-84.384 178.173,-164.344 293.691,-171.434" style="fill:#fff;fill-rule:nonzero;"/><path d="M459.825,82.33c-123.06,7.334 -274.594,118.672 -312.626,236.778c-34.862,108.266 -23.107,251.316 13.87,357.964c28.135,81.157 121.455,175.838 199.043,211.682c154.121,71.203 307.793,30.877 432.765,-74.32c95.137,-80.086 119.206,-229.003 117.368,-347.855c-2.017,-130.342 -67.288,-251.214 -174.041,-325.237c-66.11,-45.843 -196.916,-63.747 -276.378,-59.012m-9.6,-62.944c110.494,-6.788 268.001,25.45 356.395,94.204c155.229,120.734 176.853,286.182 159.043,472.504c-8.821,92.269 -27.67,154.667 -87.982,225.67c-115.046,135.431 -339.123,214.005 -507.969,143.136c-159.691,-67.031 -296.621,-197.071 -306.547,-379.42c-7.452,-136.889 0.11,-276.407 93.369,-384.66c72.695,-84.384 178.173,-164.344 293.691,-171.434" style="fill:#6e7dbd;fill-rule:nonzero;"/><path d="M635.835,167.677c67.76,-6.727 138.682,91.112 171.572,141.437c21.791,33.338 35.673,70.535 58.625,103.531c9.319,13.389 19.566,17.504 21.746,35.864c4.771,40.196 1.662,115.319 -10.284,153.958c-4.083,13.202 -25.996,13.385 -38.203,12.961c-68.954,-2.388 -159.679,-99.187 -219.754,-136.559c-156.451,-97.342 -300.268,-8.361 -424.55,91.808c-5.798,4.669 -16.078,16.844 -20.886,19.644c-8.703,5.069 -8.479,-4.441 -10.117,-11.115c-11.372,-46.356 -16.033,-116.142 -13.356,-163.851c4.185,-74.585 76.671,-168.052 160.041,-136.482c52.68,19.949 108.771,111.656 169.115,48.528c39.527,-41.349 97.382,-153.897 156.052,-159.723" style="fill:#414a70;fill-rule:nonzero;"/><path d="M453.428,468.545c72.1,-4.987 147.337,16.877 196.517,71.66c10.309,11.482 37.629,46.104 23.494,60.895c-13.193,13.805 -33.729,-10.439 -43.439,-17.476c-55.545,-40.249 -120.086,-36.765 -169.458,10.459c-35.86,34.304 -42.29,64.228 -16.685,107.43c42.987,72.536 127.644,72.666 195.038,35.738c69.455,-38.052 114.414,-87.84 200.392,-97.248c4.466,-0.485 24.985,-2.453 27.597,-1.882c6.397,1.385 0.057,21.477 -1.202,26.151c-21.098,78.383 -112.303,163.863 -182.671,200.314c-187.194,96.971 -424.774,-0.872 -497.925,-195.531c-2.551,-6.796 -12.036,-31.395 -9.64,-36.789c78.863,-80.97 158.672,-155.465 277.984,-163.721" style="fill:#6e7dbd;fill-rule:nonzero;"/><path d="M397.881,142.005c25.507,-4.926 11.466,15.19 7.742,24.81c-18.617,48.043 14.387,86.731 65.091,75.767c15.976,-3.455 35.115,-17.015 22.239,13.707c-16.673,39.776 -70.254,58.466 -107.504,36.341c-32.116,-19.077 -42.05,-75.192 -29.398,-108.176c5.154,-13.438 27.585,-39.699 41.83,-42.449" style="fill:#6e7dbd;fill-rule:nonzero;"/></g></svg>