<svg xmlns="http://www.w3.org/2000/svg" id="Calque_1" viewBox="0 0 5500 2500"><defs><clipPath id="clippath"><path d="M5370 129v2242H130V129zM5500-1H0v2502h5500z" style="fill:none"/></clipPath><style>.st3{fill:#b17742;fill-rule:evenodd}.st4{fill:#d3a06c}</style></defs><path d="M81 49h5345v2430H81z" style="fill:#dba56b"/><path d="m1144 1925-5-1q-1 8 2 15l12 1q-3-7-8-15M1037 1567l-2-5q-7 4-11 10l7 11zM917 1206l-5-1q-1 8 2 15l12 1q-2-8-8-14M2046 1649l-4-1q-2 8 1 14l13 2q-3-8-8-15M1761 1181l-2-5q-7 4-11 10l7 11zM2397 774l-5 1q2 7 6 13l13-4zM3086 598l-4 3q4 6 11 9l10-8-16-5M3680 1145l4-1q-2-7-7-12l-12 5 14 9M4287 1620l-2-5q-6 4-10 10l6 11zM4871 1307h-5q0 8 4 14l13-2q-4-7-11-12M4988 461l3-4q-6-4-13-5l-7 12 17-2M4177 451l3-3q-6-5-13-5l-7 11 16-1M2876 1155l2-4q-8-3-15-1l-3 13q9-2 16-6M476 2186h-3l3 8 1 2q2 3 3 0l-2-9zM2615 2075h-3l3 8 1 2q2 3 3 0l-2-9zM3048 1822l2 3 6-7 1-2-1-2-7 7v1M3932 2116v-3l-8 3-2 1v2l9-2zM4733 1886v3l8-4 2-2v-3l-9 4zM5098 1448l-2 3 8 2 3 1q2 0 1-2l-8-4-2 1M5100 746l-2-2-5 7-1 3 2 1 6-7zM4724 408l-1-3-6 7-1 2 1 2 7-7zM4420 754l-3 1 7 7 2 1 2-1-6-8zM3655 603h-3l3 9 2 2c1 3 1 0 2 0l-2-10zM2989 386l-3 1 7 6 2 2 2-1-6-8zM2092 485l-1-3-9 8 1 2 8-5zM1013 667l-1-3-8 4-2 2q-1 2 1 2l9-3v-2M600 1009l-2-2-4 8-1 2 2 2 5-8zM406 1730l-1-3-6 7-2 2 1 2 8-6zM1504 818zh-4v3l1 2 2 1h2v-2l1-1zM2573 1506zq-3 1-5 3l1 3 4 2h3q2 0 1-2l-1-2v-2zM3488 1524l-3-2-2 2v3l1 2h2l1-2h1v-2M3740 1790h1v-4l-2-1-3 1-1 2 1 2h1l1 1zM3186 2030zl3-3-2-2-2-1h-2q-1 0-1 2l1 1v2zM2669 1862zl-2-3-3 1-1 2-1 2 2 2 1-1h2zM2313 1353zl-3-3-2 1-1 3v2l2 1 1-1h1zM1905 1015v-1h-3l-1 2 1 3 2 1 2-1v-1l1-2zM2180 634v-1h-4v3l1 2 2 1h2v-3zM2848 427v-1h-4l-1 2 2 3 1 1 2-1v-1l1-2zM3391 569zl-4 1-1 2 2 2 2 2q1 1 1-1v-2q0-1 1-1zM3859 378v-1l-3 2 1 2 2 1h1l2-1-1-1v-1zM4364 557v-1h-4l-1 2 2 3 1 1 2-1v-1l1-2zM4777 577zl-3-3-2 1-1 3 1 2 1 1 2-1h1zM4763 896zl3-2-2-3h-4q-1 0-1 2l1 1v1zM4440 1232zl-2 3 2 2h5v-2l-1-1-1-1zM4076 1423h-4l-1 2 2 2 1 2 2-1v-2l1-1zM3560 1713zh-4v3l1 2 2 1h2v-3zM3508 1982zl-2-4h-2l-2 2-1 2 1 2h3zM518 507h-2l1 3h2l2-3-2-1zM364 1395q-1-2-3-1-2 2-1 4 1 3 4 2 2 1 3-1t-1-3zM2062 2304v2l3-1v-3q0-2-2-1l-1 1zM4363 2147h-2v2l2 1 3-1-1-2zM5085 1926l-2 1 1 2h3l1-2-1-1zM2842 865h-3l1 3h3q3 0 3-3l-2-1zM2503 441l-3 1q-1 2 1 2h3l2-2-2-1zM1462 1497h-5l-4 2 1 1 1 3h2l1-1 4 1 1-3-1 1q2 1 3-1-1-3-3-3M1684 2318l-4 1-5 2 1 1 1 3h2l2-2q1 1 4 1v-2h-1q3 2 3-1zM1573 497l-3-3-3-3h-1v2l-2 2 1 1 2 1 2 4 2-1-1-1q1 3 3 2zM299 411l-4 1-5 2 2 1v2h2l2-1 4 1v-3l-1 1q3 1 3-1zM1074 2381h-9l-1 1 2 1v3h2l2-1 3 2 1-2h-1 3q1-3-2-4M2021 1914l-1-3-3-4-1-1v2l-3 2 1 1 2 2v4l2-1q0 3 1 2 3 0 2-4M3916 829l-3-2-4-3h-1v2l-3 3q-1 1 1 1l2 1 1 4 3-2h-1q1 3 3 1 3-2 2-5M1228 496l-5 1-5 2 2 1 1 3 2-1 1-1q3 1 4 1l1-2h-1q2 1 3-1zM3262 2392q-9-4-15 1-5 7 0 14l9 1q1-6 8-4l-1-9M4218 2316q-1-10-9-13-6 0-11 8l3 8q6-1 8 4l8-5M5134 2317q-7 2-9 8 1 5 8 7l5-3q-1-4 2-7l-5-4M5390 324c-3-4-8-9-14-7q-6 3-7 12l7 6q5-4 9 0l4-8M1199 1012q-10-5-16 0-3 7 1 15l9 1q1-6 7-5l-1-9M635 1987q-9-5-15 1-4 6 0 14l9 1q2-5 8-5l-1-9M710 1569q1-9-4-14-6-2-12 4l2 8q5 1 6 6l7-3M444 695q-2-3-5-1-3 3-3 6l-1 7 4 7q4 3 7-1v-8l-2-8M4451 670l5 1q2-7-1-15l-13-1zM4559 1028l2 4q7-3 10-9l-6-11q-5 7-7 15M4678 1389l5 1q2-7-1-15l-13-1zM3549 946l5 1q1-8-1-14l-13-2q3 8 8 15M3835 1414l2 5q7-3 10-10l-6-11q-5 8-7 15M3199 1821l5-1q-1-7-7-13l-12 4 13 10M2509 1997l4-3q-3-6-10-9l-11 8zM1916 1450l-5 1q2 8 8 12l12-5zM1308 975l2 5q7-4 11-10l-7-11zM724 1288h5q0-8-4-14l-13 2zM607 2134l-3 4q6 4 14 5l6-12-16 2M1418 2144l-3 3q6 5 14 5l6-11-16 1M2720 1440l-2 4q6 3 14 1l3-13-15 6M5119 409h3l-3-8-1-2q-2-3-2 0l2 9zM2980 520h3l-3-8-1-2q-2-3-2 0l2 9zM2547 773l-1-3-6 7-1 2 1 2 7-7zM1663 479v3l8-3 3-1v-3l-10 3zM862 709v-3l-8 4-2 2 1 2 8-3zM498 1147l2-3-9-3h-2l-2 2 9 4 1-1M495 1849l2 2 5-7 1-3-1-1-6 7v2M871 2187l2 3 5-7 1-2-1-2-7 7zM1175 1841l3-1-6-7-2-1-2 1 6 7zM1940 1992h3l-3-9-1-2q-1-3-3 0l3 10zM2606 2209l3-1-6-6-2-2-2 1 5 8zM3504 2110l1 3 6-6 2-2q2-2-1-2l-8 5zM4583 1928v3l8-4 2-2v-2l-9 3zM4995 1586l2 2 4-8 1-2-1-2-6 8zM5189 865l1 3 7-7 1-2-1-2-7 6zM4091 1777zh4l1-3-2-2-1-1h-2v2l-1 1zM3022 1089zq3-1 4-3t-1-4-3-1h-3l-2 2 1 2v2zM2108 1071zl4 2 2-2-1-3-1-2h-2v2h-2l1 2M1855 805zv4l3 1 2-2 2-1-1-2h-2l-1-1zM2409 565zl-3 3 1 2 3 1h2l1-2-1-1-1-2zM2927 733l-1 1 2 3 2-1 2-2v-2l-1-2-2 1h-1zM3282 1242zl2 3 2-1 1-3 1-2-2-1-1 1h-2zM3690 1580v1h4l1-2-2-3-2-1-2 1v3zM3415 1961v1h4l1-3-2-2-1-1h-2v2l-1 1zM2748 2168v1h4v-2l-1-3-2-1-2 1v1l-1 2zM2204 2026zl4-1 1-2-1-2-2-2-2 1v2l-1 1zM1736 2217zq3 0 3-2v-2l-2-1h-2l-1 1v2zM1232 2038v1h4v-2l-1-3-2-1-2 1v1l-1 1zM818 2018zl3 3 3-1v-5l-2-1-1 1h-2zM832 1699zl-3 3 1 3h5l1-2-1-1-1-1zM1155 1363l1 1 2-3-1-2h-5l-1 2 2 1v1zM1520 1172h4v-2l-1-2-2-2-2 1v2l-1 1zM2035 882zh4l1-3-2-2-1-1h-2v2l-1 1zM2088 613h-1l1 4h3l1-2 1-2-1-2h-3zM5077 2088h3q1-1-1-3-2-1-3 0l-2 3 2 1zM5231 1199q1 3 4 2 3-2 0-4l-3-2q-4-1-4 1l1 3 3 1M3533 291v-2l-2 1-1 2q1 3 2 2l2-1zM1232 448h3q1-2-1-2l-2-1-2 1 1 2zM510 669l3-1q0-2-1-2h-3l-2 2 2 1zM2754 1730h3q1-2-1-3h-4q-2 0-2 3l2 1zM3093 2153h2l-1-2h-2l-2 2 1 1zM4134 1098h4l5-2-2-1v-3h-2l-2 1-4-1v3l1-1q-3-1-3 1 1 3 3 3M3911 277l5-1 5-2-2-1-1-3h-2l-1 2q-3-1-4-1l-1 2h1q-2-2-3 1zM4022 2098l3 3 4 3h1v-2l1-2q1-1-1-1l-2-1-1-4-2 1 1 1q-1-3-3-2zM5296 2184l4-1 5-2-1-1-1-2h-2l-2 1-4-1v3l1-1q-3-1-3 1zM4522 214h8l1-1-1-1v-3h-2l-2 1-4-2-1 2h1-3q1 3 3 4M3574 680l2 4 2 4 1 1 1-2 2-2-1-1-1-2-1-4-2 1h1q1-2-2-2zM1680 1765q0 3 2 3l4 2 1 1 1-2q1-2 3-3l-1-1-3-1-1-4-3 2h1q1-3-3-1-2 2-1 4M4368 2099l4-1 5-2-2-1v-3l-2 1-2 1q-2-1-4-1v2h1q-3-1-3 1zM2333 203q9 4 16-1 3-7-1-14l-9-2q-1 7-7 5v9M1377 279q2 10 9 13 7 0 12-8l-4-8q-5 1-8-4l-7 5M462 278q7-2 8-8-1-5-7-7l-6 3q3 4-1 7l4 4M206 2271c3 4 8 9 13 7q7-3 7-12l-7-6q-4 4-9 0l-4 8M4397 1583q9 5 15 0 5-7 0-15l-9-1q-1 6-8 5l1 9M4960 608q9 5 16-1 3-6-1-14l-9-1q-1 6-7 5v9M4885 1026q0 9 5 14 6 2 11-4l-2-9q-4 1-5-5l-7 3M5152 1900q1 3 5 1c4-2 2-4 2-6l1-7q0-4-3-7-5-3-7 1-3 3-1 8l2 8M993 3221l-5-1q-1 8 2 14l12 2q-2-8-8-15M886 2863l-2-5q-7 3-11 10l7 11zM766 2502l-5-1q-1 8 1 15l13 1q-3-7-8-15M1895 2945l-4-1q-2 8 1 14l13 1-8-14M1610 2476l-2-4q-7 3-11 10l7 11 6-15M2245 2070l-4 1q1 7 6 12l12-3q-5-6-12-10M2935 1894l-4 2q4 7 11 10l10-8-16-5M3529 2441l4-1q-2-8-8-12l-11 5 13 8M4136 2915l-2-4q-6 3-11 10l7 11 7-15M4720 2603h-5q1 8 4 14l13-2-11-12M4837 1757l3-4q-6-5-13-5l-7 11q9 1 17-1M4026 1747l3-3q-7-4-13-6l-7 11q8 2 16-1M2725 2451l2-4q-8-3-15-1l-3 13 16-6M325 3481h-3l3 9 1 2q2 3 3 0l-3-9-1-1M2464 3370h-3l3 9 1 2q2 3 3 0l-3-9-1-1M2897 3118l2 3 5-7 2-2-2-2-6 7v1M3781 3412v-3l-8 3-2 1v2l9-2zM4582 3182v3l8-5 2-1v-3l-9 4zM4947 2744l-2 3 8 2 3 1 1-2-8-4zM4949 2042l-2-3-5 8-1 2 2 2 6-7zM4573 1703l-2-2-5 7-1 2 1 2 7-7zM4269 2050l-3 1 7 6 2 2 2-1-6-8zM3504 1899h-3l3 8 2 3q1 2 2 0l-2-10zM2838 1681l-3 2 7 6 2 2q2 1 2-1l-6-8h-2M1941 1781l-1-3-9 8 1 2 8-5v-2M862 1963l-1-3-8 4-2 2v2l10-3v-2M449 2305l-2-2-4 8-1 2 2 2 5-8zM255 3026l-1-3-6 6-2 3 1 2 8-6zM1353 2114v-1h-4v3l1 2 2 1h2v-3zM2422 2802v-1q-3 0-5 3l1 3 4 2h3q2 0 1-2l-1-2v-2zM3337 2820l-4-2-1 2v2l1 2 2 1 1-2h1zM3589 3086h1v-4l-2-1-3 1-1 2v2h2l1 1zM3035 3326zl3-3-2-3h-5v2l1 1v1zM2518 3158zq0-1-2-3h-2l-1 3-1 2 2 1h3zM2162 2649zl-3-3-2 1-1 2v3l1 1 2-1h1zM1754 2310h-4v2l1 2 2 2 2-1v-1l1-2zM2029 1930v-1h-4l-1 2 2 3 2 1 2-1v-2zM2697 1722h-4l-1 2 2 2 1 2 2-1v-1l1-2zM3240 1865zh-4l-1 3 2 2 1 2 2-1v-2l1-1zM3708 1673l-3 1v3l2 1h2l2-1-1-1v-2zM4213 1852h-4l-1 2 2 3 1 1 2-1v-1l1-2-1-1M4626 1873zl-3-3-2 1-1 3v2l2 1 1-1h2zM4612 2192zl3-2-2-3h-4q-1 1-1 2l1 1v1zM4289 2527zl-2 3 2 2h5v-2l-1-1-1-2zM3925 2719zl-4 1-1 2 2 2 1 2 2-1v-2l1-1zM3409 3009v-1h-4l-1 3 2 2 2 1h2v-3zM3357 3278zl-2-4h-2l-2 2-1 2 1 2 2-1q1-1 1 1zM367 1803h-2l1 3h2l2-3-2-1zM213 2691q-1-2-3-1-3 2-1 4l4 2q2 1 3-2l-1-2zM1911 3600v2l3-1v-3q0-2-2-1l-1 1zM4212 3443h-2v2l2 1 3-1-1-2zM4934 3222h-2l1 3h2l2-2-1-1zM2691 2161h-3l1 3h3q3 0 3-3l-2-1h-3M2351 1737l-2 1q-1 2 1 2h3q2 0 1-2l-1-1zM1311 2793h-5l-5 2 2 1 1 3h2l1-1h4l1-2-1 1 3-1q-1-3-3-3M1533 3614l-4 1-5 2 1 1 1 3 2-1 2-1q1 1 4 1v-2h-1q3 1 3-1zM1422 1793l-3-3-3-3h-1v2l-2 2 1 1 2 1 2 4 2-1-1-1q1 3 2 2 3-2 1-4M148 1707h-4l-5 3 2 1v2h2l2-1 4 1v-3l-1 1q3 1 3-1-1-3-3-3M923 3677h-9l-1 1 2 1v3h2l2-1 3 2 1-2h-1q3 1 3-1t-2-3M1870 3210l-1-4-3-3-1-1v2l-3 1 1 2 2 2v4l2-1h-1q1 3 2 2 3 0 2-4M3765 2125l-3-2-4-3h-1v2l-3 3q-1 1 1 1l2 1 1 3 3-1h-1q1 2 3 1 3-2 2-5M1076 1792l-4 1-5 2 2 1 1 2h2l1-1 4 1v-2q2 1 3-1 0-2-4-3M3111 3688q-9-4-15 1-4 7 0 14l9 1q1-6 8-4l-1-9M4067 3612q-1-10-9-13-8 0-11 8l3 8q6-2 8 4l7-5M4982 3612q-6 2-8 9 1 5 7 7l6-4q-2-4 2-6l-5-5M5239 1620c-4-4-8-9-14-7q-6 3-7 12l7 6q5-4 9 0l4-8M1047 2307q-8-3-15 1-3 7 1 15l9 1q1-6 7-5l-1-9M484 3283q-9-5-15 1-5 6 0 14l9 1q1-6 8-5l-1-9M559 2865q1-9-5-14-5-2-11 4l2 8q5 1 6 6l7-3M293 1991q-3-3-5-1t-3 5l-1 8q0 4 4 7 5 3 7-1v-8l-2-8M1051 881l-5-1q-1 7 2 14l12 1q-2-8-8-14M944 522l-2-4q-7 3-11 10l7 11q5-7 6-16M824 162l-5-1q-1 8 1 14l13 1q-3-8-8-14M1953 605l-4-2q-2 8 1 15l13 1-8-14M1668 136l-2-4q-7 3-11 9l7 11q4-6 6-15M2303-270h-4q2 8 6 13l13-3-13-11M2993-446l-4 2q4 6 11 10l10-8q-7-4-16-5M3587 101l4-2q-2-7-8-12l-11 5q6 6 13 9M4194 575l-2-4q-6 3-10 9l6 11q4-6 7-15M4778 263h-5q1 7 4 13l13-1q-4-7-11-13M4895-584l3-3q-6-5-13-5l-7 11 17-1M4084-593l3-4q-6-5-13-5l-7 11q8 1 16-1M2783 111l2-5h-15l-3 12q9-1 16-6M383 1141h-3l3 8 1 3q2 2 3 0l-2-10zM2522 1030h-3l4 11h3l-2-10zM2955 778l2 3 6-7 1-3-1-2-7 7v2M3839 1071v-3l-8 3-2 2v2l9-2zM4640 841v3l8-4 2-2v-2l-9 4zM5005 404l-2 2 8 3h3q2-1 1-2l-8-4zM5007-299l-2-2-5 8-1 2 2 2 6-8zM4631-637l-1-3-6 8-1 2 1 2 7-7zM4327-290l-3 1 7 6 2 2q2 1 2-2l-6-7zM3562-441h-3l3 8 2 2q1 3 2 0l-2-9zM2896-659l-3 1 7 7 2 1 2-1-6-7zM1999-559l-1-3-9 8 1 2 8-6v-2M920-377l-1-3-8 4-2 1q-1 1 1 3l9-4v-1M507-35l-2-3-4 8-1 3q0 2 2 1l5-8zM313 686l-1-3-6 6-2 2 1 2 8-6zM1411-227h-4v2l1 2 2 2 2-1v-1l1-2zM2480 461q-3 0-5 3l1 3 4 1 3 1q2-1 1-3l-1-1v-2zM3395 480zl-4-1-1 1v3l1 2h2l1-1 1-1zM3647 745h1v-4l-2-1-3 2-1 2 1 2h2zM3093 986zl3-3-2-2-2-1-2 1-1 1 1 2v1zM2576 817l-1-3h-3l-1 2-1 3 2 1 1-1h2zM2220 308zq0-2-3-3l-2 1-1 2v2q0 1 2 1h1l1-1zM1812-30zh-4v3l1 2 2 1h2v-2l1-1zM2087-411zl-4 1-1 2 2 2 2 2q1 1 2-1v-3zM2755-618zh-4l-1 3 2 2 1 1h2v-2l1-1zM3298-475v-1h-4l-1 3 2 2 2 1h1v-2l1-1zM3766-667zl-3 2 1 2 2 1 1 1 2-2-1-1v-1zM4271-488zh-4l-1 3 2 2 1 2 2-1v-2l1-1zM4684-467zl-3-2q-2-1-2 1l-1 2 1 3 1 1 2-2h1zM4670-149zl3-3-2-2-2-1h-2q-1 0-1 2l1 1v2zM4347 187zq-2 0-2 3l2 2h3l2-1v-2l-1-1-1-1zM3983 379zh-4l-1 3 2 2 1 1h2v-2l1-1zM3467 668h-4l-1 2 2 2 2 2 2-1v-3zM3415 938zl-2-4h-2l-2 2-1 2 1 1h3zM425-538l-2 1 1 2h2l2-2-2-1zM271 351q-1-2-3-1-3 1-1 3l4 3q2 0 3-2 1-1-1-3zM1969 1259v2h3v-3l-2-2-1 2zM4270 1103l-2-1v3l2 1 3-2-1-1zM4992 882h-2l1 3h3l1-3-1-1zM2749-180q-2-1-3 1t1 3h3l3-3-2-2zM2409-603h-2q-1 2 1 3h3l2-2-2-2q-1 0-2 1M1369 452l-5 1-5 2 2 1 1 3h2l1-2q3 1 4 1l1-2h-1q2 1 3-1zM1591 1274h-4l-5 3 1 1 1 2h2l2-1 4 1v-3l-1 1q3 1 3-1-1-3-3-3M1480-548l-3-3-3-2-1-1v2l-2 2 1 2 2 1 2 3 2-1h-1q1 3 3 2zM206-633h-4l-5 2 2 1v3h2l2-2q2 1 4 1v-2l-1 1q3 1 3-2zM981 1337l-4-1-5 1-1 1 2 1v3h2l2-1q2 1 3 1l1-2-1 1q3 1 3-1 1-2-2-3M1928 870l-1-4-3-3-1-1v2l-3 1 1 2 2 1v4h2v-1l1 3q2-2 2-4M3823-215l-3-3-4-2h-1v2q-2 1-3 3l1 1h2l1 4 3-2h-1q1 3 3 2 3-2 2-5M1135-548h-5l-5 2 2 1 1 3h2l1-1h4v-2 1l3-1q-1-3-3-3M3169 1348q-9-5-15 1-4 6 0 14l9 1q1-6 8-5l-1-9M4125 1271c-1-5-3-12-9-13q-8 1-11 8l3 9q6-2 8 3l8-5M5041 1272q-7 3-9 8 1 6 8 8l5-4q-1-4 2-6l-5-5M5297-720q-5-8-14-8-6 4-7 13l7 6q5-4 9-1l4-7M1105-33q-8-4-15 1-3 7 1 14l9 1q1-5 7-5l-1-8M542 942q-9-4-15 1-4 7 0 14l9 1q3-6 8-4l-1-9M617 524q1-9-4-13-7-2-12 4l2 8q5-1 6 5l7-2M351-350q-3-2-5 0l-3 5-1 8q0 5 4 6 5 2 7 0v-8l-2-8" class="st3"/><path d="M5356 144v2212H144V144zM5500 0H0v2500h5500z" style="fill:#3f2a19"/><path d="M5370 129v2242H130V129zM5500-1H0v2502h5500z" style="fill:#f2c78f"/><g style="clip-path:url(#clippath)"><path d="M134 2477q40-4 79-15l38-11 40-8 20-4 41-7h21q20 1 40 6l40 8 40 4 19 4 3 1h2l5 1 5 1h5l10 1h5l15-1 10-1 20-3 2-1h2l5-1 10-2a2031 2031 0 0 0 156-38l1 1q-37 16-76 30-37 14-78 21l-10 2-6 1h-5l-20 1h-62l-20-1q-21-3-40-11-40-11-79-11h-20a298 298 0 0 0-59 7q-19 5-38 12a439 439 0 0 1-101 16zM779 2470q14-14 33-21a179 179 0 0 1 77-16l39 3 39 3 39 3 38 4q20 2 38-1l37-9h2l3-1 13-3 19-5 36-15q9-4 19-6 9-3 20-4a80 80 0 0 1 41 9q18 10 33 21l17 9 17 5q10 1 19-1l8-4 8-5h1a35 35 0 0 1-16 12q-9 4-20 4a76 76 0 0 1-30-7l-9-4-34-18a86 86 0 0 0-34-6 182 182 0 0 0-73 19l-17 9-14 5-3 1-2 1-20 3h-59l-39-1-39-6q-19-3-38-4l-39 2-37 2a244 244 0 0 0-73 22M1342 2410q11-9 24-13 14-5 28-5 15 0 28 4 15 4 26 10 26 10 52 19l12 5 6 2 3 2 3 1q13 5 27 5 14-1 26 1l27 3q14 1 26-3l26-6 51-16q26-9 48-23l1 1q-20 18-45 32a175 175 0 0 1-79 23l-28 2q-13 3-28 2-13-1-27-6l-27-6-3-1-4-1-7-2-13-4c-17-6-32-18-49-23l-26-5q-13-3-26-4h-26q-13 2-26 6M1724 2474q17-12 38-17 20-4 41-4 21 1 41 6l39 13c26 8 53 11 80 18l39 10q19 5 40 6h20l10 1 20 2 10 2 5 1h5l25 2h6l10-1 10-1h5l5-1 10-1 9-2 5-1h5l10-2 10-2 5-1 5-1 10-1 10-3 4-1 5-1 10-2 10-3 4-2 5-1 10-3 9-4 5-2 5-2 9-4 9-4 5-2 4-3 9-5 1 2-9 5-4 3-4 3-9 6-9 5-4 2-5 3-9 5-9 4-5 2-5 2-9 4-10 3-5 2-5 1-10 3-10 3-5 1-5 1-10 2-11 1-5 1-25 1h-42l-20 1h-21l-31-3-20-5-40-8-40-7c-27-5-52-16-79-22l-39-8-40-6q-20-3-39-1-20 3-39 10M2371 2513q23-16 48-28l14-5a156 156 0 0 1 41-8l13-2 14-3 14-3 28-1 14 1 28 1 14-1 14 1 13 4 14 5 13 4 14 3 13 3 14 5q26 9 49 26t43 35l-1 2q-23-16-47-28l-50-22-12-5-13-6-26-8-13-1-27-4-13-3-27-2-14 1-27 1-14 1-27 4-13 4-13 4-13 4-13 4zM2109 2432a119 119 0 0 1 25-21l2-1 2-1 3-2 8-4a150 150 0 0 1 47-13h33l33-1h32l32 4q16 2 32 1 16-2 32-2h31q16-2 31-8l3-1 4-2 7-3 14-6 28-15 30-14q15-6 32-8t33 1v2q-17-1-32 3t-29 12q-27 16-56 31l-23 9-4 1-4 1-32 7-8 1-9 2-4 1-4 1h-8q-17 1-32-3l-33-2-32-1q-16-1-32-3-15-2-32-1l-31 5-31 6q-31 8-58 24M2070 2398l-17 13-10 4-11 1q-6 0-10 3l-10 4-11 1q-5 0-10 2-4 4-10 4l-11-2-10 2-11 2a54 54 0 0 1-21-2l-10-3-10-3v-1l10-2 11-2 20-1q5-1 10 1h10q6-4 10-4 5-2 11 1 4 1 10-1l9-4 11-1q5 1 10-2l9-5q4-2 10-3zM2631 2422q17-10 37-15 19-4 40-2 19 1 39 7l36 15q37 15 72 27 18 7 37 12 18 5 37 4 19-3 38-4 20-1 38-3 20-2 38-8 18-5 38-9a397 397 0 0 1 77-10 262 262 0 0 1 78 11l-1 1q-18-3-38-4l-38 2-75 14-39 6-38 7q-19 6-38 8-21 3-40-1l-39-5q-19-3-39-10c-24-8-46-23-71-31l-37-10-37-8q-18-3-37-2t-37 8zM2984 2354a303 303 0 0 0 146 37 250 250 0 0 0 57-4l3-1h3l6-2 6-2 24-9 49-20a223 223 0 0 1 51-10l7-1h20l26 1q27 1 52 10 25 8 48 21 47 21 96 36l6 2 6 2 13 4a368 368 0 0 0 61 9h13q26-1 50-9t43-26l1 1q-18 19-42 31a170 170 0 0 1-78 15 202 202 0 0 1-52-7l-13-4-6-2-6-2q-25-8-48-20l-48-21q-24-8-49-15l-12-4-12-4-6-1-6-2-12-4-25-3-13 1h-6l-7 1-24 5-25 8q-48 17-99 31-25 6-52 8-26 0-52-6-53-11-94-44M3436 2468q36 20 73 30l38 10q20 5 39 7t39 0l39-7 39-8 36-15q9-5 19-9a79 79 0 0 1 41-7l21 5 39 12 37 12q19 5 37 3h5l4-1 9-3 18-7 37-17 19-5q10-2 21-1v2q-11 0-20 2l-18 8-34 20-28 14-6 1-2 1h-3q-10 2-22 1l-20-4q-20-6-38-16l-18-8a88 88 0 0 0-56-2l-19 4-19 4-38 14a231 231 0 0 1-79 16l-41-1q-20-1-40-3-21-3-39-11-39-14-70-41M3982 2404l35-11q9-2 19-3l18 1q9 1 18-1t18-1l19 2h18q9-2 18-1l18 6q9 3 18 2l19 2a163 163 0 0 1 35 11l17 7 16 8-1 2-17-4-18-3-35-7-18-5q-8-3-17-4-9 1-18 1t-18-5l-18-1-18 1-18-2h-18l-17 4-18 1zM4188 2451h57l29 2q13 2 28 3 14 1 28-1l28-4 28-3q14-2 27-8l24-13 27-10q13-5 26-13l13-6 4-1 11-2q15-4 30-2 15 0 29 5 27 8 53 23l-1 1a237 237 0 0 0-109-13h-3l-7 2h-3l-13 4q-14 3-26 11l-24 16q-14 6-28 8l-28 7q-14 5-29 6-14 3-29 1h-28q-14 1-29 1l-29-2q-28-4-56-12M4564 2458a321 321 0 0 0 69 14h34q18 1 35-2t33-11l31-16a389 389 0 0 1 85-30q10-2 19 0 11 1 18 4l17 7a194 194 0 0 0 38 12l4 1 4 1h5l8 2h25l17-1a177 177 0 0 0 64-23q15-9 27-22l1 1a154 154 0 0 1-90 58 132 132 0 0 1-37 2l-4-1h-5l-9-2-5-1-4-2-4-1-5-2q-17-8-33-12l-34-6-16-1h-17q-17 3-33 11l-31 16q-15 9-33 14l-35 10q-17 5-35 7h-23l-4-1h-5l-4-1q-37-5-68-24zM5112 2516l1-5 1-3v-2l2-6 2-4 5-10 1-2 2-3 3-4 3-4 1-1 1-1 2-2 2-2 2-2 4-3 5-2 5-3 4-2 3-1 7-3 5-2 2-1 3-1 5-2 5-2 2-1 3-1 5-1h6q11 0 21 2l21 4q11-1 20 3l18 10q9 5 20 7l19 5 19 5 19 3 2 1h17q11 0 20-4l1 2-19 8-3 1-3 1-5 1-5 1h-5a102 102 0 0 1-42-5q-10-4-19-9l-19-8-20-4-18-9q-9-4-19-4l-20 1-19 2h-5l-2 1-2 1-5 1-6 4-2 2-4 3-4 3-3 3-4 3-2 2-2 1-1 2-1 1-1 1-4 3-3 3-2 2-1 2-7 7-3 4-3 4-1 2-2 3zM404 2385l-31-5h-15l-16-2-15 4-15 6-15 4q-9 1-15 7-5 5-14 9-7 2-16 3l-15 7-15 6a81 81 0 0 1-33 4 109 109 0 0 1-33-7v-2a82 82 0 0 0 32-1l15-4 15-3 16-4q8-1 15-5l13-9q7-3 16-4l15-5 15-8q8-2 16-3l17-2 16-4 17 2q9 2 16 6zM822 2517q8-12 21-21 14-7 28-12 16-4 31-4l30 5 29 7q14 2 28 8c18 8 35 19 54 24l14 2 14 5 13 5 14 6 28 7 14 1 15 3 57 8q29 5 58 6v2q-29 3-59 3a284 284 0 0 1-73-8l-14-5-29-7-15-3-14-3-14-6-13-7c-17-10-36-14-54-21l-27-12q-13-5-28-7-14-2-28 0-15 0-28 2-27 4-52 22M916 2350q18 11 37 20l9 4 9 4 10 4 9 4 21 4 31 2 10 1h10l11-2 10-3 10-2 10-1 11-1 10-2 10-3 9-5 10-3 40-13 41-11 1 1-38 20a208 208 0 0 1-50 19l-10 2-21 5-10 4-11 3-10 1-11-1h-11l-11 1-11 1-21-1-11-3-10-3-11-2-10-2-11-3-10-4-10-5q-18-12-31-30M5389 98a179 179 0 0 1-61-1 347 347 0 0 1-60-13l-38-13a167 167 0 0 0-40-6l-19-1h-15l-5 1q-39 0-79 11-19 7-40 10l-20 2h-21l-10-1h-31l-20-1h-5l-6-1-10-1q-40-7-79-21l-75-30 1-2a1646 1646 0 0 0 156 39l10 1 4 1 3 1h2q10 2 20 3l10 2 15 1 5-1h12l3-1 5-1h5l2-1h2l20-4q19-4 40-5 19-2 40-7 20-5 40-6l6-1h10l5 1a215 215 0 0 1 41 7l20 4 39 8 39 10q39 12 79 16M4744 90a195 195 0 0 0-73-21q-18-2-37-3l-39-2-38 5-39 5-39 2-39-1-5 1h-15l-20-4h-2l-3-1-14-6-18-8a200 200 0 0 0-72-20 86 86 0 0 0-34 7l-34 17-19 8q-10 3-20 3-11 0-20-3l-9-5-7-7 1-1a31 31 0 0 0 16 9q9 3 19 1a69 69 0 0 0 25-9l8-5q16-11 34-21l20-7q11-2 21-1 11 0 20 3l19 7 36 15 32 8h3l2 1 37 8q18 4 38 1l38-4 39-2 39-3 39-3a200 200 0 0 1 77 15q19 9 33 21M4181 31q-13-5-26-7h-26l-26 4-26 6c-17 5-32 16-49 22l-14 5-6 1-4 1-3 1-27 7q-13 5-27 6-15 0-28-3l-28-1q-14 0-28-4-27-5-52-19-24-15-44-33l1-1q22 15 48 24l51 15 26 7q12 3 26 3l27-4h26q14-1 26-6l4-1 3-1 6-3 12-5q26-9 51-18l26-11a102 102 0 0 1 57 1q14 5 24 14M3799 95q-19-9-39-10-19-2-39 0-21 2-40 7l-39 7c-27 6-52 17-79 23l-40 7a477 477 0 0 0-71 14l-10 1-10 1-11-1h-10l-20-1h-11l-10 1h-21l-10-1h-10l-5-1-6-1-10-1-10-2-5-1-5-1-10-2-10-3-5-2-5-1-10-4-9-4-5-1-5-3-9-4-9-5-5-2-4-3-9-5-9-5-4-3-4-3-9-6 1-1 9 5 4 2 5 3 9 4 9 4 5 2 5 2 9 3 10 3 4 2 5 1 10 3 10 3 4 1 5 1 10 2 10 2 5 1 5 1 10 2 9 1 5 1 5 1 10 1 10 1 5 1 5 1 10 1h15l26-1 5-1 5-1 10-1 30-3 20-1q21-1 40-6l39-10q40-7 80-18l39-13q20-5 41-5 21-2 41 3 21 5 38 18M3152 134l-53-17-13-4-12-4-13-5-27-7-13-1h-14l-13-1-14-1-14-1-27 2-13 4-13 2-14 1-13 2-26 8-13 5-12 6-50 22q-24 12-47 27l-1-1q19-20 43-35a216 216 0 0 1 63-31l13-4 27-7 14-4 13-4 14-2 14 1h14l14-1 14-1 28 1 14 3a333 333 0 0 0 55 10l13 4 13 5q27 10 49 28M3414 53q-28-17-58-24l-31-6-31-5h-32l-32 4-32 1q-16 0-33 2a118 118 0 0 1-40 2l-5-1h-4l-8-2-8-2q-15-4-32-6l-4-1-4-1-23-9q-30-15-56-31-15-8-29-13-15-4-32-3v-1q17-4 33-1 17 2 32 8 15 5 30 13l28 15 14 7 7 3 4 2 3 1a97 97 0 0 0 39 8l7-1h16q16 1 32 3 16 1 32-2 16-2 32-3l32-1 33 1h33a153 153 0 0 1 47 14l8 4 3 2 2 1 2 1a121 121 0 0 1 25 20zM3453 18l11 1 10 1 10 3 9 6 10 2 11 1 9 3q5 2 10 1 6-2 11-1l10 4h10l10-1h10l10 2 11 2 10 1v2l-10 3-10 3-11 2-10-1q-5 1-11-2-5-2-10-1l-11 2q-6-1-10-5l-10-2-11-1q-6-1-10-3-4-4-10-4l-11-1q-4-1-10-4l-9-5zM2891 42q-18-6-37-7t-38 1l-36 8q-19 4-37 11c-25 8-47 22-72 31q-18 6-38 9l-39 5q-20 4-40 2l-38-8q-20-6-38-7l-39-7q-37-7-75-13a280 280 0 0 0-76 2l-1-2a228 228 0 0 1 78-11 321 321 0 0 1 77 10l38 10q18 6 38 8l38 2 38 4q19 1 37-4 19-4 36-12 37-12 73-27l36-15a176 176 0 0 1 79-5q20 5 36 15M2539-25a229 229 0 0 1-198 41 1089 1089 0 0 1-124-38l-24-6-7-1h-19q-12 0-25 3l-12 3-6 2-6 2-12 4-12 3q-25 7-49 15-25 10-48 21-23 12-48 20l-6 3-6 2-13 3a258 258 0 0 1-66 7 196 196 0 0 1-64-15q-25-11-42-30l1-2q19 18 43 27a167 167 0 0 0 75 8 238 238 0 0 0 49-9l13-3 6-2 6-2q49-15 96-37 23-11 48-21 25-8 52-9l26-2 13 1h14a201 201 0 0 1 51 11q26 8 48 19l24 9 7 2 6 2h1l2 1h3l6 2q25 4 51 3 24-1 50-5 50-8 96-32M2087 89a234 234 0 0 1-109 51q-20 4-41 3l-40 1a201 201 0 0 1-80-15q-18-8-37-14l-19-5-19-4-18-3a82 82 0 0 0-38 6l-18 8q-18 9-38 15-9 4-20 4h-22l-3-1h-3l-5-2-10-4-18-9-34-21-18-7q-10-3-20-3v-1h21l19 6 37 16 27 10 4 1h3l2 1q18 2 36-4 19-4 38-12l39-12 21-4a83 83 0 0 1 41 6l18 9q19 11 37 15l39 9q19 4 38 6 21 3 40 1l39-8 38-9q37-12 73-30M1541 24l-37 1-18-2q-8-2-17-3h-18l-18 1-18-1q-9 0-18 2-9 4-18 5l-18-1q-9 1-17 3-9 4-18 5l-17 4-18 4-18 2-18 4v-1l16-8 17-8 35-10q9-2 19-2l18-3 17-5q10-1 19 1 9 1 18-1l18-2 19 2 18 1 18-1 19 2zM1335 71q-29 9-56 12-15 2-29 3l-29-1h-29a163 163 0 0 1-57-7l-28-8q-14-1-28-8-13-7-24-15-12-8-26-12l-13-3-3-1-7-1-3-1q-27-4-55 0-27 3-54 13l-1-1q25-14 53-23l29-5a108 108 0 0 1 41 5l4 1 13 6 26 13 27 10q12 5 24 13 13 5 27 8l28 3 28 4q14 2 28 1l28-4 29-1q27-2 57-1M959 79q-31 19-68 25h-4l-5 1h-4l-5 1-18-1q-18-2-35-7l-35-10q-18-5-33-13l-31-17q-16-8-33-10h-17l-16 1-34 5-33 12-5 2-4 2-4 1-5 1-9 2-5 1h-4l-19 1a131 131 0 0 1-53-15q-34-17-55-46l1-1a133 133 0 0 0 58 37q17 6 33 8l17 2h17l4-1h4l8-1 5-1h4l4-1 4-1q18-4 34-11l17-7 18-5h19l18 5 67 26 31 16q17 8 33 11 17 2 35 2h30l4-1a261 261 0 0 0 69-13M410 136l-3-4-1-2-1-2-3-4-3-4-7-8-1-2-2-1-3-4-4-3-1-1-1-1-2-1-1-2-2-1-4-3-3-4-4-3-4-3-2-1-11-6h-2l-3-1-4-1-20-2h-19q-9 0-19 4-9 6-18 8l-20 5q-10 2-19 8l-19 8a107 107 0 0 1-42 6l-2-1h-3l-5-1-6-1-2-1h-3q-9-3-19-9l1-1 19 4h10l5-1h5l19-4 19-5 19-5q10-2 19-6 9-6 19-10 9-4 20-4t21-4l21-2 6 1 5 1h3l2 1 5 2 5 2 2 1 3 1 12 6 2 1 5 2 5 2 5 3 6 5 2 2 2 2 1 1 1 1 3 4 3 4 2 2 1 2 5 10 2 5 1 5 1 3 1 2zM5119 6a55 55 0 0 1 30-17q8-2 16-1 9 1 17 3t16 3 17 3l15 7q7 4 15 6 8 0 16 4 7 4 13 9 8 4 15 5l16 3 15 4 15 3 15 2h16l1 1a134 134 0 0 1-33 8 96 96 0 0 1-33-4q-7-2-15-7l-15-6-16-4q-8-2-14-9l-15-6-15-5-15-5q-7-3-15-4l-16 1-15 1zM4701 137q-25-17-52-21-14-2-28-3h-28q-15 2-28 8l-27 11q-28 9-54 21l-13 8-14 5-15 3-14 3-15 3-14 5-14 4-14 3q-30 6-59 6-30 0-59-4v-1q29-2 58-6l57-9 14-2 15-2 28-7 14-5 27-10 14-3c19-5 36-16 54-23q14-6 28-9l29-6q15-5 30-5a105 105 0 0 1 58 16q13 8 22 20M4607-29q-13 18-31 29l-10 6-21 6-21 5-10 2-11 3-21 1-11-1h-22l-11 1-10-1-11-4-10-4-10-2-11-2-10-2-11-3q-19-6-39-16l-38-20 1-2q20 7 41 12l50 16 9 4 10 4 10 2h11l20 3 10 4 21 1 10-1 21-1 21-2 10-2 9-4 9-5 10-4 9-4q19-8 37-20zM93 133q-9 20-10 39-3 20 0 40 2 19 7 39l7 40c6 26 17 52 23 78l7 41a477 477 0 0 0 14 70l1 10v31l-1 21v20l1 11v10l-1 10-1 10v6l-1 5-1 10-2 10-1 5-1 5-2 10-3 10-2 5-1 5-4 10-4 10-2 4-2 5-4 9-5 10-2 4-3 5-5 9-6 8-2 4-3 5-6 8-1-1 5-9 2-4 2-5 5-9 4-9 2-5 2-4 3-10 3-9 2-5 1-5 3-10 2-9 2-5 1-5 2-10 2-10 1-5 1-5 1-9 2-10 1-5v-5l2-10 1-10 1-5v-5l2-10v-15l-2-25v-5l-1-5-1-10-3-30-1-21q-1-20-6-40l-10-39c-7-26-10-53-18-79l-13-39-6-41q0-22 4-42 6-21 17-38zM132 781l-17 52-4 13-4 13-5 13-7 26-1 14v13l-1 14-1 13-1 14 2 27 4 13 2 13 1 14 2 14 8 26 5 12 5 13 23 49q11 24 27 48h-1q-19-19-36-43a216 216 0 0 1-31-62l-3-14-7-27-5-13-3-14-2-14 1-14v-14l-1-14-1-14 1-28 3-14a333 333 0 0 0 10-55l4-13 5-13q10-26 28-49zM70 525q-17 28-24 58-4 15-6 31-4 15-6 31-1 16 1 32l4 32v32l3 32a118 118 0 0 1 2 41l-1 4-1 4-1 8-2 8-7 33-1 4-1 4-8 23q-15 30-32 56-8 14-12 29t-3 31h-2q-3-15-1-32l8-32q6-17 14-30l15-28 7-14 3-7 1-4 2-4a97 97 0 0 0 7-38v-24q0-16 3-31 1-17-2-32l-4-32v-33l1-32v-33a153 153 0 0 1 14-48l3-7 2-4 1-1 2-2a121 121 0 0 1 20-25M35 481l1-35 2-16 4-17q2-8 1-16v-17l2-17v-17q-4-8-3-17l2-16-2-17q-3-9-3-17l-3-16-1-17v-17l-2-17h2l11 32 7 34v17q-2 9 1 17 2 9 3 17 1 9-2 17-2 8-1 17l1 17q0 9-3 17l-2 17v17q-1 9-3 17zM42 998q-7 20-9 41-1 20 2 41t9 41l5 20 7 20c9 27 25 51 35 78q7 20 11 42l6 43q3 21 1 43-4 22-9 43l-8 42q-2 21-8 42-8 41-14 83a295 295 0 0 0 2 83l-1 1a240 240 0 0 1-12-85 350 350 0 0 1 11-85l11-42q7-20 9-41l3-42 5-42q0-21-5-41l-14-40q-13-39-30-79l-9-20-8-20a192 192 0 0 1-6-86q4-22 16-40M-12 1301a229 229 0 0 1 42 199 1089 1089 0 0 1-39 123l-5 25-1 6v6l-1 13 3 25 4 13 2 6 2 6 3 12 4 12q7 25 15 49 9 24 21 47 12 24 20 48l2 6 2 7 4 12a258 258 0 0 1 7 66 196 196 0 0 1-15 64q-12 25-31 43l-1-1q18-20 26-44a167 167 0 0 0 9-74 238 238 0 0 0-9-50l-4-12-2-6-1-6q-16-49-37-96-13-24-21-48-9-26-9-52l-2-27v-20l1-6a201 201 0 0 1 10-52l20-48 9-24 2-6 2-6v-3l1-3 1-7q5-24 3-50 0-26-4-51-7-49-33-96" class="st4"/><path d="M65 1819q33 22 58 56 13 17 19 36l2 5 1 5 2 5 1 5v6l1 5 1 5v5q2 20 0 41a127 127 0 0 1-32 75l-13 15a194 194 0 0 0-31 49q-3 8-4 16l3 18q3 9 9 17 5 9 12 16l12 16q6 8 11 18l1 3 1 2 2 5 2 12v6l-1 3v3a47 47 0 0 1-10 20l-7 8-16 14-31 25-13 14-4 9q-2 4-1 10h-2a35 35 0 0 1 4-20q4-10 12-17 14-16 28-29l13-14q7-7 10-15l3-8v-8l-1-9-1-4-1-2-1-2-19-34-11-17-10-18q-5-9-7-21-1-12 2-23l11-19 15-14 25-31a207 207 0 0 0 31-70 104 104 0 0 0 1-42v-2l-1-5-2-4v-3l-1-2-2-5-2-4-1-5-2-4q-7-18-18-35-20-33-48-62M77 2974q19 30 25 67v4l1 5v27q-2 18-7 36l-10 34q-5 18-13 34l-17 31q-8 15-10 33v16l1 17 5 33q5 17 12 34l2 4 1 4 2 5 1 4 2 9 1 5v23a131 131 0 0 1-14 53q-17 33-46 55l-1-1a133 133 0 0 0 37-58q6-16 8-33l2-17v-16l-1-5v-4l-1-8-1-4-1-5v-4l-1-4-11-33-7-17-5-18v-20l5-18 26-67 16-31q8-15 11-33 3-17 2-34v-26l-1-5v-4a261 261 0 0 0-13-68zM134 3522l-4 3-2 1-2 2-5 3-3 3-8 6-2 2-1 1-4 4-3 3-1 1-1 1-1 2-2 2-1 1-4 4-3 4-3 3-3 4-2 2-5 11-1 2v3l-1 5-2 19-1 19q1 10 5 19 6 9 8 18l5 20q2 10 8 19l8 19a107 107 0 0 1 5 42v5l-1 6-1 5-1 2-1 3-8 19-1-1 4-19v-10l-1-5v-5l-4-19-5-19-5-19q-1-10-7-19l-10-18q-4-10-3-21l-4-21-2-21v-5l2-6v-2l1-3 2-5 2-5 1-2 1-3 5-12 1-2 2-5 3-5 3-5 5-6 1-2 2-2 1-1 1-1 4-3 5-3 2-2 2-1 10-5 5-2 5-1 2-1h3zM5387 2361a179 179 0 0 1 1-61 347 347 0 0 1 13-60l13-38a167 167 0 0 0 6-40l1-20v-9l-1-5v-5q0-39-11-79-7-19-10-40l-2-20v-21l1-10v-5l-1-16 1-10v-20l1-3v-3l1-5 1-10q7-40 21-79l30-75 2 1a1646 1646 0 0 0-39 156l-1 9-1 5-1 3v2q-2 10-3 20l-2 10-1 15 1 5v12l1 3 1 5v4l1 3v2l4 20q4 19 5 40 2 19 7 40 5 19 6 40l1 5v6l-1 5v5a215 215 0 0 1-7 41l-4 19-8 40-11 39q-11 39-15 79M5407 1716a195 195 0 0 0 22-73l3-38 1-38q0-19-4-38l-6-39-1-39v-59l3-20 1-2 1-3 5-14 9-18a200 200 0 0 0 20-72 86 86 0 0 0-7-34l-18-34-7-19-4-20q0-11 4-20l5-9 7-7 1 1a31 31 0 0 0-10 16l-1 18a69 69 0 0 0 10 26l5 8q10 16 20 34 5 9 7 20 3 11 2 21t-3 20l-7 19-15 36-8 32-1 3v2l-9 37q-3 18-1 38l4 38 3 39 3 39 3 39a200 200 0 0 1-16 77q-8 18-21 33M5467 1153q4-13 6-26v-26q0-13-4-26l-5-26c-5-17-17-32-23-49l-4-14-2-6-1-4v-3l-7-27q-5-13-6-27 0-15 2-28l2-28q0-14 3-28 6-27 20-52 14-24 32-44l2 1q-15 23-24 48l-16 51-6 25q-4 13-3 27l3 27q2 12 1 26 0 14 5 26l1 3 2 4 2 6 5 12q9 26 19 51 6 13 10 26a102 102 0 0 1-1 56q-4 14-13 25M5403 771q7-20 10-39v-40l-7-39-8-40c-6-26-17-51-22-78l-7-40a477 477 0 0 0-15-71l-1-10v-26l1-5v-72l1-10v-5l1-6 2-10 1-10 1-5 1-5 3-10 3-10 1-5 2-5 3-10 4-9 2-5 2-5 5-9 4-9 3-5 2-4 5-9 6-9 3-4 3-5 6-8 1 1-5 9-3 4-2 5-4 9-4 9-2 5-2 5-4 9-3 10-1 4-2 5-2 10-3 10-1 4-1 5-2 10-2 10-1 5-1 5-2 9-2 10v5l-1 5-1 10-2 10v5l-1 5-1 10-1 10v5l2 26 1 5v5l2 10 3 30v20q2 20 7 40l10 39c6 26 9 54 18 79l12 39q5 21 6 42 2 21-4 41-5 21-17 38M5445 386a172 172 0 0 0 24-39l7-21 3-11 3-11q1-11-1-23l-2-11-1-12-2-23v-12l-2-12-1-6-2-12 3-18 2-6 2-6 2-6 2-5 1-3 1-3 2-6 5-11 7-11q14-19 30-35 8-9 12-19 3-5 3-11l1-11h1l2 12-1 12q-3 12-9 23l-13 20-15 18-7 9-6 9-3 5-1 2-2 3-1 5-1 6-1 5v23l-1 5-1 6-1 6v11l2 12 4 23v24l-1 24v12l-1 12q-3 12-9 23a87 87 0 0 1-34 34M5480 425l-1 11-2 10q-1 6-3 10l-5 9q-3 5-2 10l-1 10-4 10q-2 5-1 10 2 6 2 11l-5 10v10q2 5 1 10v10l-1 10-2 11-2 10h-1l-3-10-3-10-2-11v-10l2-11 2-10-2-11q1-6 4-10 2-6 2-11l1-10 4-10 4-10v-11l4-10 6-9zM5492 2091a55 55 0 0 1 16 29l2 17-4 17-2 16-3 17-7 15q-4 6-6 15-1 8-4 16l-9 13q-4 7-5 15l-4 16-3 15-4 15-2 15 1 16-2 1a134 134 0 0 1-7-33 96 96 0 0 1 4-33q2-9 6-15 5-8 7-15l3-17q4-7 10-13l6-15 4-15 6-15 4-15-2-16v-15zM5360 1673q18-24 22-52 3-14 2-28 2-14 0-28-2-15-7-28l-11-27q-9-28-22-54l-7-13-6-14-3-15-2-14-4-15-4-14-4-14-4-15q-6-29-5-58 1-30 3-59h2q1 29 6 58l8 57 3 14 2 15 6 28 6 13 10 28 3 14c4 19 16 35 23 54q5 13 9 28l6 29q4 15 5 30a105 105 0 0 1-16 58q-8 13-21 22M5527 1579q-18-13-30-31l-5-10-7-21-4-21-3-10-2-11-2-21 1-11 1-22-1-11 1-11 3-10 4-10 3-10 2-11 2-10 3-11q5-21 16-39l20-38 1 1-11 41-16 50-4 9-4 10-2 10-1 11-3 20-3 10-2 21 1 10 2 21 1 20 3 11 4 9 4 9 4 10zM5502-2l-14 20-9 9-9 7q-9 8-17 18-10 7-18 16-3 6-7 10l-10 7q-9 9-16 18-17 18-36 33l-1-1q13-21 30-39 9-7 18-16l7-10 10-7q9-8 17-17l19-16 7-10 9-8zM5367 2368l20 14 9 9 7 10q8 8 18 16 7 10 16 18 6 3 10 7l7 10q9 9 18 16 18 17 33 36l-1 1q-21-12-39-29-7-10-16-19l-10-7-7-10q-8-9-17-17-8-10-16-18l-10-8-8-9zM134 135l-20-15-9-8-7-10c-5-7-13-10-18-17q-8-9-17-17-5-2-10-8l-7-10q-7-9-18-16Q11 18-4-2v-1q22 13 39 30 8 9 16 18l10 7q5 5 7 11 8 10 18 16 7 10 16 19l10 7 8 9zM137 2364q-6 11-15 20l-8 8-10 8q-8 8-16 18-10 7-18 16-3 7-7 10l-11 7q-8 9-16 18-16 18-36 33v-1q12-21 29-39c5-6 14-9 18-16l8-10q3-4 10-7 9-8 17-17 9-8 18-16l8-10 8-8q10-8 21-14" class="st4"/></g></svg>